G04*
G04 #@! TF.GenerationSoftware,Altium Limited,Altium Designer,23.11.1 (41)*
G04*
G04 Layer_Physical_Order=1*
G04 Layer_Color=255*
%FSLAX44Y44*%
%MOMM*%
G71*
G04*
G04 #@! TF.SameCoordinates,1F3C10B6-2D31-4D23-80B0-F6AB3A826ACA*
G04*
G04*
G04 #@! TF.FilePolarity,Positive*
G04*
G01*
G75*
%ADD21C,0.3810*%
%ADD22C,1.0160*%
%ADD23C,0.5080*%
%ADD24C,1.1430*%
%ADD25R,1.5000X1.5000*%
%ADD26C,1.5000*%
%ADD27C,1.5240*%
%ADD28R,1.5240X1.5240*%
%ADD29R,1.5240X1.5240*%
%ADD30C,3.0480*%
%ADD31C,1.2700*%
D21*
X305435Y105595D02*
Y116205D01*
Y105595D02*
X306890Y104140D01*
X215900Y205740D02*
X305435Y116205D01*
X426720Y107950D02*
X445770Y127000D01*
X406400Y107950D02*
X426720D01*
X186690Y205740D02*
X215900D01*
D22*
X455320Y91042D02*
Y100658D01*
X449368Y85090D02*
X455320Y91042D01*
Y100658D02*
X488552Y133890D01*
X436880Y85090D02*
X449368D01*
X488552Y133890D02*
X557269D01*
X430269Y163290D02*
X557269D01*
X565880Y154679D01*
X414020Y179539D02*
Y189083D01*
X557269Y133890D02*
X565880Y142501D01*
X414020Y189083D02*
X440529Y215592D01*
X565880Y142501D02*
Y154679D01*
X414020Y179539D02*
X430269Y163290D01*
X440529Y215592D02*
X450757D01*
X537210Y302045D01*
Y346710D01*
D23*
X342170Y121963D02*
X354330Y109803D01*
Y85090D02*
Y109803D01*
X342170Y121963D02*
Y132037D01*
X349833Y139700D02*
X358827D01*
X366490Y147363D02*
Y165640D01*
X354330Y177800D02*
X366490Y165640D01*
X358827Y139700D02*
X366490Y147363D01*
X350373Y191040D02*
X390430D01*
X447040Y247650D01*
X342170Y132037D02*
X349833Y139700D01*
X553720Y103453D02*
X575500Y125233D01*
Y158664D01*
X490357Y178933D02*
X555231D01*
X575500Y158664D01*
X468630Y200660D02*
X490357Y178933D01*
X501650Y194310D02*
X615950D01*
X646970Y163290D01*
X481330Y214630D02*
X501650Y194310D01*
X600710Y120650D02*
X637540Y83820D01*
X600710Y120650D02*
Y172720D01*
X646970Y146093D02*
Y163290D01*
X654093Y138970D02*
X655026D01*
X658002Y135994D01*
Y126858D02*
Y135994D01*
Y126858D02*
X659130Y125730D01*
X646970Y146093D02*
X654093Y138970D01*
X402050Y241840D02*
X407670Y236220D01*
X349293Y241840D02*
X402050D01*
X341090Y250043D02*
X349293Y241840D01*
X341090Y250043D02*
Y259037D01*
X323893Y267240D02*
X332887D01*
X341090Y259037D01*
X322433Y268700D02*
X323893Y267240D01*
X284333Y268700D02*
X322433D01*
X271093Y281940D02*
X284333Y268700D01*
X186690Y281940D02*
X271093D01*
X341090Y275443D02*
X349813Y266721D01*
X405109D01*
X553720Y85090D02*
Y103453D01*
X405109Y266721D02*
X415290Y256540D01*
X341090Y275443D02*
Y284437D01*
X332887Y292640D02*
X341090Y284437D01*
X322433Y294100D02*
X323893Y292640D01*
X332887D01*
X284333Y294100D02*
X322433D01*
X271093Y307340D02*
X284333Y294100D01*
X186690Y307340D02*
X271093D01*
X341090Y181757D02*
X350373Y191040D01*
X341090Y164560D02*
Y181757D01*
X328930Y152400D02*
X341090Y164560D01*
D24*
X422910Y346710D02*
X491490Y278130D01*
X492506D01*
X456725Y278859D02*
X457454Y278130D01*
X456725Y278859D02*
Y286984D01*
X397510Y346199D02*
X456725Y286984D01*
X397510Y346199D02*
Y346710D01*
D25*
X328930Y85090D02*
D03*
X613410D02*
D03*
X528320D02*
D03*
X411480D02*
D03*
X469900D02*
D03*
X365760Y346710D02*
D03*
X562610D02*
D03*
X594360D02*
D03*
X454660D02*
D03*
X422910D02*
D03*
D26*
X354330Y85090D02*
D03*
X379730D02*
D03*
X664210D02*
D03*
X638810D02*
D03*
X579120D02*
D03*
X553720D02*
D03*
X436880D02*
D03*
X495300D02*
D03*
X340360Y346710D02*
D03*
X537210D02*
D03*
X619760D02*
D03*
X505460D02*
D03*
X480060D02*
D03*
X397510D02*
D03*
D27*
X328930Y127000D02*
D03*
X151130D02*
D03*
X354330D02*
D03*
X125730D02*
D03*
X151130Y279400D02*
D03*
Y228600D02*
D03*
Y304800D02*
D03*
Y254000D02*
D03*
Y152400D02*
D03*
Y177800D02*
D03*
Y203200D02*
D03*
X125730Y254000D02*
D03*
Y279400D02*
D03*
Y228600D02*
D03*
Y304800D02*
D03*
Y203200D02*
D03*
Y152400D02*
D03*
Y177800D02*
D03*
X354330Y279400D02*
D03*
Y228600D02*
D03*
Y254000D02*
D03*
Y152400D02*
D03*
Y177800D02*
D03*
Y203200D02*
D03*
X328930Y304800D02*
D03*
Y228600D02*
D03*
Y279400D02*
D03*
Y254000D02*
D03*
Y152400D02*
D03*
Y177800D02*
D03*
Y203200D02*
D03*
X288290Y307340D02*
D03*
Y281940D02*
D03*
X186690Y307340D02*
D03*
Y281940D02*
D03*
Y205740D02*
D03*
Y256540D02*
D03*
Y231140D02*
D03*
X288290Y256540D02*
D03*
Y180340D02*
D03*
Y205740D02*
D03*
Y231140D02*
D03*
X659130Y278130D02*
D03*
Y252730D02*
D03*
Y201930D02*
D03*
Y176530D02*
D03*
Y151130D02*
D03*
Y227330D02*
D03*
Y125730D02*
D03*
X457454Y278130D02*
D03*
X492506D02*
D03*
X551180Y148590D02*
D03*
X525780D02*
D03*
X500380D02*
D03*
X474980D02*
D03*
X449580D02*
D03*
X424180D02*
D03*
D28*
X354330Y304800D02*
D03*
X659130Y303530D02*
D03*
D29*
X186690Y180340D02*
D03*
X398780Y148590D02*
D03*
D30*
X654380Y341030D02*
D03*
X110250D02*
D03*
D31*
X306890Y104140D02*
D03*
X240030Y163830D02*
D03*
X445770Y127000D02*
D03*
X406400Y107950D02*
D03*
X468630Y200660D02*
D03*
X481330Y214630D02*
D03*
X600710Y172720D02*
D03*
X407670Y236220D02*
D03*
X415290Y256540D02*
D03*
X447040Y247650D02*
D03*
M02*
