M48
;Layer_Color=9474304
;FILE_FORMAT=4:4
METRIC,LZ
;TYPE=PLATED
T01F00S00C0.7112
T02F00S00C0.7620
T03F00S00C0.9000
T04F00S00C2.5400
%
T01
X0024003Y0016383
X0030689Y0010414
X004064Y0010795
X0044577Y00127
X0046863Y0020066
X0048133Y0021463
X0044704Y0024765
X0041529Y0025654
X0040767Y0023622
X0060071Y0017272
T02
X0012573Y00127
X0015113
Y001524
Y001778
Y002032
Y002286
Y00254
Y002794
Y003048
X0012573
Y002794
Y00254
Y002286
Y002032
Y001778
Y001524
X0018669Y0018034
Y0020574
Y0023114
Y0025654
Y0028194
Y0030734
X0028829
Y0028194
Y0025654
Y0023114
Y0020574
Y0018034
X0032893Y001778
X0035433
Y001524
Y00127
X0032893
Y001524
Y002032
X0035433
Y002286
Y00254
Y002794
Y003048
X0032893
Y002794
Y00254
Y002286
X0039878Y0014859
X0042418
X0044958
X0047498
X0050038
X0052578
X0055118
X0065913Y0015113
Y0017653
Y0020193
Y0022733
Y0025273
Y0027813
Y0030353
Y0012573
X00492506Y0027813
X00457454
T03
X0032893Y0008509
X0035433
X0037973
X0036576Y0034671
X0034036
X0039751
X0042291
X0045466
X0048006
X0050546
X0053721
X0056261
X0059436
X0061976
X0061341Y0008509
X0063881
X0066421
X0057912
X0055372
X0052832
X004953
X004699
X0043688
X0041148
T04
X0011025Y0034103
X0065438
M30
