G04*
G04 #@! TF.GenerationSoftware,Altium Limited,Altium Designer,23.11.1 (41)*
G04*
G04 Layer_Physical_Order=3*
G04 Layer_Color=16440176*
%FSLAX44Y44*%
%MOMM*%
G71*
G04*
G04 #@! TF.SameCoordinates,1F3C10B6-2D31-4D23-80B0-F6AB3A826ACA*
G04*
G04*
G04 #@! TF.FilePolarity,Positive*
G04*
G01*
G75*
%ADD22C,1.0160*%
%ADD25R,1.5000X1.5000*%
%ADD26C,1.5000*%
%ADD27C,1.5240*%
%ADD28R,1.5240X1.5240*%
%ADD29R,1.5240X1.5240*%
%ADD30C,3.0480*%
%ADD31C,1.2700*%
G36*
X679490Y68031D02*
X85140D01*
Y362572D01*
X679490Y362572D01*
X679490Y68031D01*
D02*
G37*
%LPC*%
G36*
X341682Y356750D02*
X341630D01*
Y347980D01*
X350400D01*
Y348032D01*
X349716Y350585D01*
X348394Y352875D01*
X346525Y354744D01*
X344235Y356066D01*
X341682Y356750D01*
D02*
G37*
G36*
X621082D02*
X621030D01*
Y347980D01*
X629800D01*
Y348032D01*
X629116Y350585D01*
X627794Y352875D01*
X625925Y354744D01*
X623635Y356066D01*
X621082Y356750D01*
D02*
G37*
G36*
X618490D02*
X618438D01*
X615885Y356066D01*
X613595Y354744D01*
X611726Y352875D01*
X610404Y350585D01*
X609720Y348032D01*
Y347980D01*
X618490D01*
Y356750D01*
D02*
G37*
G36*
X464700D02*
X455930D01*
Y347980D01*
X464700D01*
Y356750D01*
D02*
G37*
G36*
X453390D02*
X444620D01*
Y347980D01*
X453390D01*
Y356750D01*
D02*
G37*
G36*
X339090D02*
X339038D01*
X336485Y356066D01*
X334195Y354744D01*
X332326Y352875D01*
X331004Y350585D01*
X330320Y348032D01*
Y347980D01*
X339090D01*
Y356750D01*
D02*
G37*
G36*
X603860Y356210D02*
X584860D01*
Y337210D01*
X603860D01*
Y356210D01*
D02*
G37*
G36*
X572110D02*
X553110D01*
Y337210D01*
X572110D01*
Y356210D01*
D02*
G37*
G36*
X538461D02*
X535959D01*
X533543Y355563D01*
X531377Y354312D01*
X529608Y352543D01*
X528357Y350377D01*
X527710Y347961D01*
Y345459D01*
X528357Y343043D01*
X529608Y340877D01*
X531377Y339108D01*
X533543Y337857D01*
X535959Y337210D01*
X538461D01*
X540877Y337857D01*
X543043Y339108D01*
X544812Y340877D01*
X546063Y343043D01*
X546710Y345459D01*
Y347961D01*
X546063Y350377D01*
X544812Y352543D01*
X543043Y354312D01*
X540877Y355563D01*
X538461Y356210D01*
D02*
G37*
G36*
X506711D02*
X504209D01*
X501793Y355563D01*
X499627Y354312D01*
X497858Y352543D01*
X496607Y350377D01*
X495960Y347961D01*
Y345459D01*
X496607Y343043D01*
X497858Y340877D01*
X499627Y339108D01*
X501793Y337857D01*
X504209Y337210D01*
X506711D01*
X509127Y337857D01*
X511293Y339108D01*
X513062Y340877D01*
X514313Y343043D01*
X514960Y345459D01*
Y347961D01*
X514313Y350377D01*
X513062Y352543D01*
X511293Y354312D01*
X509127Y355563D01*
X506711Y356210D01*
D02*
G37*
G36*
X481311D02*
X478809D01*
X476393Y355563D01*
X474227Y354312D01*
X472458Y352543D01*
X471207Y350377D01*
X470560Y347961D01*
Y345459D01*
X471207Y343043D01*
X472458Y340877D01*
X474227Y339108D01*
X476393Y337857D01*
X478809Y337210D01*
X481311D01*
X483727Y337857D01*
X485893Y339108D01*
X487662Y340877D01*
X488913Y343043D01*
X489560Y345459D01*
Y347961D01*
X488913Y350377D01*
X487662Y352543D01*
X485893Y354312D01*
X483727Y355563D01*
X481311Y356210D01*
D02*
G37*
G36*
X432410D02*
X413410D01*
Y337210D01*
X432410D01*
Y356210D01*
D02*
G37*
G36*
X398761D02*
X396259D01*
X393843Y355563D01*
X391677Y354312D01*
X389908Y352543D01*
X388657Y350377D01*
X388010Y347961D01*
Y345459D01*
X388657Y343043D01*
X389908Y340877D01*
X391677Y339108D01*
X393843Y337857D01*
X396259Y337210D01*
X398761D01*
X401177Y337857D01*
X403343Y339108D01*
X405112Y340877D01*
X406363Y343043D01*
X407010Y345459D01*
Y347961D01*
X406363Y350377D01*
X405112Y352543D01*
X403343Y354312D01*
X401177Y355563D01*
X398761Y356210D01*
D02*
G37*
G36*
X375260D02*
X356260D01*
Y337210D01*
X375260D01*
Y356210D01*
D02*
G37*
G36*
X629800Y345440D02*
X621030D01*
Y336670D01*
X621082D01*
X623635Y337354D01*
X625925Y338676D01*
X627794Y340545D01*
X629116Y342835D01*
X629800Y345388D01*
Y345440D01*
D02*
G37*
G36*
X618490D02*
X609720D01*
Y345388D01*
X610404Y342835D01*
X611726Y340545D01*
X613595Y338676D01*
X615885Y337354D01*
X618438Y336670D01*
X618490D01*
Y345440D01*
D02*
G37*
G36*
X464700D02*
X455930D01*
Y336670D01*
X464700D01*
Y345440D01*
D02*
G37*
G36*
X453390D02*
X444620D01*
Y336670D01*
X453390D01*
Y345440D01*
D02*
G37*
G36*
X350400D02*
X341630D01*
Y336670D01*
X341682D01*
X344235Y337354D01*
X346525Y338676D01*
X348394Y340545D01*
X349716Y342835D01*
X350400Y345388D01*
Y345440D01*
D02*
G37*
G36*
X339090D02*
X330320D01*
Y345388D01*
X331004Y342835D01*
X332326Y340545D01*
X334195Y338676D01*
X336485Y337354D01*
X339038Y336670D01*
X339090D01*
Y345440D01*
D02*
G37*
G36*
X656078Y358270D02*
X652682D01*
X649351Y357607D01*
X646214Y356308D01*
X643390Y354421D01*
X640988Y352020D01*
X639102Y349196D01*
X637802Y346059D01*
X637140Y342728D01*
Y339332D01*
X637802Y336001D01*
X639102Y332864D01*
X640988Y330040D01*
X643390Y327639D01*
X646214Y325752D01*
X649351Y324453D01*
X652682Y323790D01*
X656078D01*
X659408Y324453D01*
X662546Y325752D01*
X665369Y327639D01*
X667771Y330040D01*
X669658Y332864D01*
X670957Y336001D01*
X671620Y339332D01*
Y342728D01*
X670957Y346059D01*
X669658Y349196D01*
X667771Y352020D01*
X665369Y354421D01*
X662546Y356308D01*
X659408Y357607D01*
X656078Y358270D01*
D02*
G37*
G36*
X111948D02*
X108552D01*
X105221Y357607D01*
X102084Y356308D01*
X99260Y354421D01*
X96859Y352020D01*
X94972Y349196D01*
X93673Y346059D01*
X93010Y342728D01*
Y339332D01*
X93673Y336001D01*
X94972Y332864D01*
X96859Y330040D01*
X99260Y327639D01*
X102084Y325752D01*
X105221Y324453D01*
X108552Y323790D01*
X111948D01*
X115279Y324453D01*
X118416Y325752D01*
X121240Y327639D01*
X123641Y330040D01*
X125528Y332864D01*
X126827Y336001D01*
X127490Y339332D01*
Y342728D01*
X126827Y346059D01*
X125528Y349196D01*
X123641Y352020D01*
X121240Y354421D01*
X118416Y356308D01*
X115279Y357607D01*
X111948Y358270D01*
D02*
G37*
G36*
X289557Y316960D02*
X287024D01*
X284577Y316304D01*
X282383Y315038D01*
X280592Y313247D01*
X279326Y311053D01*
X278670Y308606D01*
Y306073D01*
X279326Y303627D01*
X280592Y301433D01*
X282383Y299642D01*
X284577Y298376D01*
X287024Y297720D01*
X289557D01*
X292003Y298376D01*
X294197Y299642D01*
X295988Y301433D01*
X297254Y303627D01*
X297910Y306073D01*
Y308606D01*
X297254Y311053D01*
X295988Y313247D01*
X294197Y315038D01*
X292003Y316304D01*
X289557Y316960D01*
D02*
G37*
G36*
X187957D02*
X185424D01*
X182977Y316304D01*
X180783Y315038D01*
X178992Y313247D01*
X177726Y311053D01*
X177070Y308606D01*
Y306073D01*
X177726Y303627D01*
X178992Y301433D01*
X180783Y299642D01*
X182977Y298376D01*
X185424Y297720D01*
X187957D01*
X190403Y298376D01*
X192597Y299642D01*
X194388Y301433D01*
X195654Y303627D01*
X196310Y306073D01*
Y308606D01*
X195654Y311053D01*
X194388Y313247D01*
X192597Y315038D01*
X190403Y316304D01*
X187957Y316960D01*
D02*
G37*
G36*
X363950Y314420D02*
X344710D01*
Y295180D01*
X363950D01*
Y314420D01*
D02*
G37*
G36*
X330196D02*
X327663D01*
X325217Y313764D01*
X323023Y312498D01*
X321232Y310707D01*
X319966Y308513D01*
X319310Y306066D01*
Y303533D01*
X319966Y301087D01*
X321232Y298893D01*
X323023Y297102D01*
X325217Y295836D01*
X327663Y295180D01*
X330196D01*
X332643Y295836D01*
X334837Y297102D01*
X336628Y298893D01*
X337894Y301087D01*
X338550Y303533D01*
Y306066D01*
X337894Y308513D01*
X336628Y310707D01*
X334837Y312498D01*
X332643Y313764D01*
X330196Y314420D01*
D02*
G37*
G36*
X152396D02*
X149864D01*
X147417Y313764D01*
X145223Y312498D01*
X143432Y310707D01*
X142166Y308513D01*
X141510Y306066D01*
Y303533D01*
X142166Y301087D01*
X143432Y298893D01*
X145223Y297102D01*
X147417Y295836D01*
X149864Y295180D01*
X152396D01*
X154843Y295836D01*
X157037Y297102D01*
X158828Y298893D01*
X160094Y301087D01*
X160750Y303533D01*
Y306066D01*
X160094Y308513D01*
X158828Y310707D01*
X157037Y312498D01*
X154843Y313764D01*
X152396Y314420D01*
D02*
G37*
G36*
X126996D02*
X124464D01*
X122017Y313764D01*
X119823Y312498D01*
X118032Y310707D01*
X116766Y308513D01*
X116110Y306066D01*
Y303533D01*
X116766Y301087D01*
X118032Y298893D01*
X119823Y297102D01*
X122017Y295836D01*
X124464Y295180D01*
X126996D01*
X129443Y295836D01*
X131637Y297102D01*
X133428Y298893D01*
X134694Y301087D01*
X135350Y303533D01*
Y306066D01*
X134694Y308513D01*
X133428Y310707D01*
X131637Y312498D01*
X129443Y313764D01*
X126996Y314420D01*
D02*
G37*
G36*
X668750Y313150D02*
X649510D01*
Y293910D01*
X668750D01*
Y313150D01*
D02*
G37*
G36*
X660468Y288290D02*
X660400D01*
Y279400D01*
X669290D01*
Y279468D01*
X668598Y282052D01*
X667260Y284368D01*
X665368Y286260D01*
X663052Y287598D01*
X660468Y288290D01*
D02*
G37*
G36*
X657860D02*
X657792D01*
X655208Y287598D01*
X652892Y286260D01*
X651000Y284368D01*
X649662Y282052D01*
X648970Y279468D01*
Y279400D01*
X657860D01*
Y288290D01*
D02*
G37*
G36*
X289557Y291560D02*
X287024D01*
X284577Y290904D01*
X282383Y289638D01*
X280592Y287847D01*
X279326Y285653D01*
X278670Y283207D01*
Y280674D01*
X279326Y278227D01*
X280592Y276033D01*
X282383Y274242D01*
X284577Y272976D01*
X287024Y272320D01*
X289557D01*
X292003Y272976D01*
X294197Y274242D01*
X295988Y276033D01*
X297254Y278227D01*
X297910Y280674D01*
Y283207D01*
X297254Y285653D01*
X295988Y287847D01*
X294197Y289638D01*
X292003Y290904D01*
X289557Y291560D01*
D02*
G37*
G36*
X187957D02*
X185424D01*
X182977Y290904D01*
X180783Y289638D01*
X178992Y287847D01*
X177726Y285653D01*
X177070Y283207D01*
Y280674D01*
X177726Y278227D01*
X178992Y276033D01*
X180783Y274242D01*
X182977Y272976D01*
X185424Y272320D01*
X187957D01*
X190403Y272976D01*
X192597Y274242D01*
X194388Y276033D01*
X195654Y278227D01*
X196310Y280674D01*
Y283207D01*
X195654Y285653D01*
X194388Y287847D01*
X192597Y289638D01*
X190403Y290904D01*
X187957Y291560D01*
D02*
G37*
G36*
X355597Y289020D02*
X353064D01*
X350617Y288364D01*
X348423Y287098D01*
X346632Y285307D01*
X345366Y283113D01*
X344710Y280667D01*
Y278134D01*
X345366Y275687D01*
X346632Y273493D01*
X348423Y271702D01*
X350617Y270436D01*
X353064Y269780D01*
X355597D01*
X358043Y270436D01*
X360237Y271702D01*
X362028Y273493D01*
X363294Y275687D01*
X363950Y278134D01*
Y280667D01*
X363294Y283113D01*
X362028Y285307D01*
X360237Y287098D01*
X358043Y288364D01*
X355597Y289020D01*
D02*
G37*
G36*
X330196D02*
X327663D01*
X325217Y288364D01*
X323023Y287098D01*
X321232Y285307D01*
X319966Y283113D01*
X319310Y280667D01*
Y278134D01*
X319966Y275687D01*
X321232Y273493D01*
X323023Y271702D01*
X325217Y270436D01*
X327663Y269780D01*
X330196D01*
X332643Y270436D01*
X334837Y271702D01*
X336628Y273493D01*
X337894Y275687D01*
X338550Y278134D01*
Y280667D01*
X337894Y283113D01*
X336628Y285307D01*
X334837Y287098D01*
X332643Y288364D01*
X330196Y289020D01*
D02*
G37*
G36*
X152396D02*
X149864D01*
X147417Y288364D01*
X145223Y287098D01*
X143432Y285307D01*
X142166Y283113D01*
X141510Y280667D01*
Y278134D01*
X142166Y275687D01*
X143432Y273493D01*
X145223Y271702D01*
X147417Y270436D01*
X149864Y269780D01*
X152396D01*
X154843Y270436D01*
X157037Y271702D01*
X158828Y273493D01*
X160094Y275687D01*
X160750Y278134D01*
Y280667D01*
X160094Y283113D01*
X158828Y285307D01*
X157037Y287098D01*
X154843Y288364D01*
X152396Y289020D01*
D02*
G37*
G36*
X126996D02*
X124464D01*
X122017Y288364D01*
X119823Y287098D01*
X118032Y285307D01*
X116766Y283113D01*
X116110Y280667D01*
Y278134D01*
X116766Y275687D01*
X118032Y273493D01*
X119823Y271702D01*
X122017Y270436D01*
X124464Y269780D01*
X126996D01*
X129443Y270436D01*
X131637Y271702D01*
X133428Y273493D01*
X134694Y275687D01*
X135350Y278134D01*
Y280667D01*
X134694Y283113D01*
X133428Y285307D01*
X131637Y287098D01*
X129443Y288364D01*
X126996Y289020D01*
D02*
G37*
G36*
X493773Y287750D02*
X491240D01*
X488793Y287094D01*
X486599Y285828D01*
X484808Y284037D01*
X483542Y281843D01*
X482886Y279396D01*
Y276863D01*
X483542Y274417D01*
X484808Y272223D01*
X486599Y270432D01*
X488793Y269166D01*
X491240Y268510D01*
X493773D01*
X496219Y269166D01*
X498413Y270432D01*
X500204Y272223D01*
X501470Y274417D01*
X502126Y276863D01*
Y279396D01*
X501470Y281843D01*
X500204Y284037D01*
X498413Y285828D01*
X496219Y287094D01*
X493773Y287750D01*
D02*
G37*
G36*
X458721D02*
X456188D01*
X453741Y287094D01*
X451547Y285828D01*
X449756Y284037D01*
X448490Y281843D01*
X447834Y279396D01*
Y276863D01*
X448490Y274417D01*
X449756Y272223D01*
X451547Y270432D01*
X453741Y269166D01*
X456188Y268510D01*
X458721D01*
X461167Y269166D01*
X463361Y270432D01*
X465152Y272223D01*
X466418Y274417D01*
X467074Y276863D01*
Y279396D01*
X466418Y281843D01*
X465152Y284037D01*
X463361Y285828D01*
X461167Y287094D01*
X458721Y287750D01*
D02*
G37*
G36*
X669290Y276860D02*
X660400D01*
Y267970D01*
X660468D01*
X663052Y268662D01*
X665368Y270000D01*
X667260Y271892D01*
X668598Y274208D01*
X669290Y276792D01*
Y276860D01*
D02*
G37*
G36*
X657860D02*
X648970D01*
Y276792D01*
X649662Y274208D01*
X651000Y271892D01*
X652892Y270000D01*
X655208Y268662D01*
X657792Y267970D01*
X657860D01*
Y276860D01*
D02*
G37*
G36*
X188028Y266700D02*
X187960D01*
Y257810D01*
X196850D01*
Y257878D01*
X196158Y260462D01*
X194820Y262778D01*
X192928Y264670D01*
X190612Y266008D01*
X188028Y266700D01*
D02*
G37*
G36*
X185420D02*
X185352D01*
X182768Y266008D01*
X180452Y264670D01*
X178560Y262778D01*
X177222Y260462D01*
X176530Y257878D01*
Y257810D01*
X185420D01*
Y266700D01*
D02*
G37*
G36*
X660468Y262890D02*
X660400D01*
Y254000D01*
X669290D01*
Y254068D01*
X668598Y256652D01*
X667260Y258968D01*
X665368Y260860D01*
X663052Y262198D01*
X660468Y262890D01*
D02*
G37*
G36*
X657860D02*
X657792D01*
X655208Y262198D01*
X652892Y260860D01*
X651000Y258968D01*
X649662Y256652D01*
X648970Y254068D01*
Y254000D01*
X657860D01*
Y262890D01*
D02*
G37*
G36*
X416389Y264890D02*
X414191D01*
X412067Y264321D01*
X410163Y263222D01*
X408608Y261667D01*
X407509Y259763D01*
X406940Y257639D01*
Y255441D01*
X407509Y253317D01*
X408608Y251413D01*
X410163Y249858D01*
X412067Y248759D01*
X414191Y248190D01*
X416389D01*
X418513Y248759D01*
X420417Y249858D01*
X421972Y251413D01*
X423071Y253317D01*
X423640Y255441D01*
Y257639D01*
X423071Y259763D01*
X421972Y261667D01*
X420417Y263222D01*
X418513Y264321D01*
X416389Y264890D01*
D02*
G37*
G36*
X196850Y255270D02*
X187960D01*
Y246380D01*
X188028D01*
X190612Y247072D01*
X192928Y248410D01*
X194820Y250302D01*
X196158Y252618D01*
X196850Y255202D01*
Y255270D01*
D02*
G37*
G36*
X185420D02*
X176530D01*
Y255202D01*
X177222Y252618D01*
X178560Y250302D01*
X180452Y248410D01*
X182768Y247072D01*
X185352Y246380D01*
X185420D01*
Y255270D01*
D02*
G37*
G36*
X355597Y263620D02*
X353064D01*
X350617Y262964D01*
X348423Y261698D01*
X346632Y259907D01*
X345366Y257713D01*
X344710Y255266D01*
Y252733D01*
X345366Y250287D01*
X346632Y248093D01*
X348423Y246302D01*
X350617Y245036D01*
X353064Y244380D01*
X355597D01*
X358043Y245036D01*
X360237Y246302D01*
X362028Y248093D01*
X363294Y250287D01*
X363950Y252733D01*
Y255266D01*
X363294Y257713D01*
X362028Y259907D01*
X360237Y261698D01*
X358043Y262964D01*
X355597Y263620D01*
D02*
G37*
G36*
X330196D02*
X327663D01*
X325217Y262964D01*
X323023Y261698D01*
X321232Y259907D01*
X319966Y257713D01*
X319310Y255266D01*
Y252733D01*
X319966Y250287D01*
X321232Y248093D01*
X323023Y246302D01*
X325217Y245036D01*
X327663Y244380D01*
X330196D01*
X332643Y245036D01*
X334837Y246302D01*
X336628Y248093D01*
X337894Y250287D01*
X338550Y252733D01*
Y255266D01*
X337894Y257713D01*
X336628Y259907D01*
X334837Y261698D01*
X332643Y262964D01*
X330196Y263620D01*
D02*
G37*
G36*
X152396D02*
X149864D01*
X147417Y262964D01*
X145223Y261698D01*
X143432Y259907D01*
X142166Y257713D01*
X141510Y255266D01*
Y252733D01*
X142166Y250287D01*
X143432Y248093D01*
X145223Y246302D01*
X147417Y245036D01*
X149864Y244380D01*
X152396D01*
X154843Y245036D01*
X157037Y246302D01*
X158828Y248093D01*
X160094Y250287D01*
X160750Y252733D01*
Y255266D01*
X160094Y257713D01*
X158828Y259907D01*
X157037Y261698D01*
X154843Y262964D01*
X152396Y263620D01*
D02*
G37*
G36*
X126996D02*
X124464D01*
X122017Y262964D01*
X119823Y261698D01*
X118032Y259907D01*
X116766Y257713D01*
X116110Y255266D01*
Y252733D01*
X116766Y250287D01*
X118032Y248093D01*
X119823Y246302D01*
X122017Y245036D01*
X124464Y244380D01*
X126996D01*
X129443Y245036D01*
X131637Y246302D01*
X133428Y248093D01*
X134694Y250287D01*
X135350Y252733D01*
Y255266D01*
X134694Y257713D01*
X133428Y259907D01*
X131637Y261698D01*
X129443Y262964D01*
X126996Y263620D01*
D02*
G37*
G36*
X669290Y251460D02*
X660400D01*
Y242570D01*
X660468D01*
X663052Y243262D01*
X665368Y244600D01*
X667260Y246492D01*
X668598Y248808D01*
X669290Y251392D01*
Y251460D01*
D02*
G37*
G36*
X657860D02*
X648970D01*
Y251392D01*
X649662Y248808D01*
X651000Y246492D01*
X652892Y244600D01*
X655208Y243262D01*
X657792Y242570D01*
X657860D01*
Y251460D01*
D02*
G37*
G36*
X448139Y256000D02*
X445941D01*
X443817Y255431D01*
X441913Y254332D01*
X440358Y252777D01*
X439259Y250873D01*
X438690Y248749D01*
Y246551D01*
X439259Y244427D01*
X440358Y242523D01*
X441913Y240968D01*
X443817Y239869D01*
X445941Y239300D01*
X448139D01*
X450263Y239869D01*
X452167Y240968D01*
X453722Y242523D01*
X454821Y244427D01*
X455390Y246551D01*
Y248749D01*
X454821Y250873D01*
X453722Y252777D01*
X452167Y254332D01*
X450263Y255431D01*
X448139Y256000D01*
D02*
G37*
G36*
X408769Y244570D02*
X406571D01*
X404447Y244001D01*
X402543Y242902D01*
X400988Y241347D01*
X399889Y239443D01*
X399320Y237319D01*
Y235121D01*
X399889Y232997D01*
X400988Y231093D01*
X402543Y229538D01*
X404447Y228439D01*
X406571Y227870D01*
X408769D01*
X410893Y228439D01*
X412797Y229538D01*
X414352Y231093D01*
X415451Y232997D01*
X416020Y235121D01*
Y237319D01*
X415451Y239443D01*
X414352Y241347D01*
X412797Y242902D01*
X410893Y244001D01*
X408769Y244570D01*
D02*
G37*
G36*
X289557Y266160D02*
X287024D01*
X284577Y265504D01*
X282383Y264238D01*
X280592Y262447D01*
X279326Y260253D01*
X278670Y257806D01*
Y257019D01*
X234981Y213330D01*
X233846Y211850D01*
X233132Y210128D01*
X232889Y208280D01*
X232889Y208280D01*
Y168161D01*
X232249Y167053D01*
X231680Y164929D01*
Y162731D01*
X232249Y160607D01*
X233348Y158703D01*
X234903Y157148D01*
X236807Y156049D01*
X238931Y155480D01*
X241129D01*
X243253Y156049D01*
X245157Y157148D01*
X246712Y158703D01*
X247811Y160607D01*
X248380Y162731D01*
Y164929D01*
X247811Y167053D01*
X247171Y168161D01*
Y205322D01*
X265276Y223427D01*
X266449Y222941D01*
Y141947D01*
X266449Y141947D01*
X266692Y140099D01*
X267406Y138377D01*
X268540Y136898D01*
X292917Y112521D01*
X292918Y112521D01*
X294397Y111386D01*
X296119Y110672D01*
X297967Y110429D01*
X297967Y110429D01*
X299727D01*
X299931Y109936D01*
X300146Y109159D01*
X299109Y107363D01*
X298540Y105239D01*
Y103041D01*
X299109Y100917D01*
X300208Y99013D01*
X301763Y97458D01*
X303667Y96359D01*
X305791Y95790D01*
X307989D01*
X310113Y96359D01*
X312017Y97458D01*
X313572Y99013D01*
X314671Y100917D01*
X315240Y103041D01*
Y105239D01*
X314983Y106197D01*
X316098Y106942D01*
X317176Y106116D01*
X318898Y105402D01*
X320746Y105159D01*
X320746Y105159D01*
X338255D01*
X338255Y105159D01*
X340104Y105402D01*
X341826Y106116D01*
X343305Y107250D01*
X353434Y117380D01*
X355597D01*
X358043Y118036D01*
X360237Y119302D01*
X362028Y121093D01*
X363294Y123287D01*
X363950Y125733D01*
Y128266D01*
X363294Y130713D01*
X362028Y132907D01*
X360237Y134698D01*
X358043Y135964D01*
X355597Y136620D01*
X353064D01*
X350617Y135964D01*
X348423Y134698D01*
X346632Y132907D01*
X345366Y130713D01*
X344925Y129069D01*
X339233Y123377D01*
X338095Y124035D01*
X338550Y125733D01*
Y128266D01*
X337894Y130713D01*
X336628Y132907D01*
X334837Y134698D01*
X332643Y135964D01*
X330196Y136620D01*
X327663D01*
X325217Y135964D01*
X323023Y134698D01*
X321232Y132907D01*
X319966Y130713D01*
X319310Y128266D01*
Y125733D01*
X319525Y124931D01*
X318460Y123997D01*
X317325Y124468D01*
X315476Y124711D01*
X315476Y124711D01*
X300925D01*
X280731Y144905D01*
Y172635D01*
X281904Y173121D01*
X282383Y172642D01*
X284577Y171376D01*
X287024Y170720D01*
X289557D01*
X292003Y171376D01*
X294197Y172642D01*
X295988Y174433D01*
X297254Y176627D01*
X297910Y179074D01*
Y181607D01*
X297254Y184053D01*
X295988Y186247D01*
X294197Y188038D01*
X292003Y189304D01*
X289557Y189960D01*
X287024D01*
X284577Y189304D01*
X282383Y188038D01*
X281904Y187559D01*
X280731Y188045D01*
Y198035D01*
X281904Y198521D01*
X282383Y198042D01*
X284577Y196776D01*
X287024Y196120D01*
X289557D01*
X292003Y196776D01*
X294197Y198042D01*
X295988Y199833D01*
X297254Y202027D01*
X297910Y204473D01*
Y207006D01*
X297254Y209453D01*
X295988Y211647D01*
X294197Y213438D01*
X292003Y214704D01*
X289557Y215360D01*
X287024D01*
X284577Y214704D01*
X282383Y213438D01*
X281904Y212959D01*
X280731Y213445D01*
Y223435D01*
X281904Y223921D01*
X282383Y223442D01*
X284577Y222176D01*
X287024Y221520D01*
X289557D01*
X292003Y222176D01*
X294197Y223442D01*
X295988Y225233D01*
X297254Y227427D01*
X297910Y229874D01*
Y232407D01*
X297254Y234853D01*
X295988Y237047D01*
X294197Y238838D01*
X292003Y240104D01*
X289557Y240760D01*
X287024D01*
X285324Y240305D01*
X284667Y241443D01*
X290359Y247135D01*
X292003Y247576D01*
X294197Y248842D01*
X295988Y250633D01*
X297254Y252827D01*
X297910Y255273D01*
Y257806D01*
X297254Y260253D01*
X295988Y262447D01*
X294197Y264238D01*
X292003Y265504D01*
X289557Y266160D01*
D02*
G37*
G36*
X187957Y240760D02*
X185424D01*
X182977Y240104D01*
X180783Y238838D01*
X178992Y237047D01*
X177726Y234853D01*
X177070Y232407D01*
Y229874D01*
X177726Y227427D01*
X178992Y225233D01*
X180783Y223442D01*
X182977Y222176D01*
X185424Y221520D01*
X187957D01*
X190403Y222176D01*
X192597Y223442D01*
X194388Y225233D01*
X195654Y227427D01*
X196310Y229874D01*
Y232407D01*
X195654Y234853D01*
X194388Y237047D01*
X192597Y238838D01*
X190403Y240104D01*
X187957Y240760D01*
D02*
G37*
G36*
X355597Y238220D02*
X353064D01*
X350617Y237564D01*
X348423Y236298D01*
X346632Y234507D01*
X345366Y232313D01*
X344710Y229867D01*
Y227334D01*
X345366Y224887D01*
X346632Y222693D01*
X348423Y220902D01*
X350617Y219636D01*
X353064Y218980D01*
X355597D01*
X358043Y219636D01*
X360237Y220902D01*
X362028Y222693D01*
X363294Y224887D01*
X363950Y227334D01*
Y229867D01*
X363294Y232313D01*
X362028Y234507D01*
X360237Y236298D01*
X358043Y237564D01*
X355597Y238220D01*
D02*
G37*
G36*
X330196D02*
X327663D01*
X325217Y237564D01*
X323023Y236298D01*
X321232Y234507D01*
X319966Y232313D01*
X319310Y229867D01*
Y227334D01*
X319966Y224887D01*
X321232Y222693D01*
X323023Y220902D01*
X325217Y219636D01*
X327663Y218980D01*
X330196D01*
X332643Y219636D01*
X334837Y220902D01*
X336628Y222693D01*
X337894Y224887D01*
X338550Y227334D01*
Y229867D01*
X337894Y232313D01*
X336628Y234507D01*
X334837Y236298D01*
X332643Y237564D01*
X330196Y238220D01*
D02*
G37*
G36*
X152396D02*
X149864D01*
X147417Y237564D01*
X145223Y236298D01*
X143432Y234507D01*
X142166Y232313D01*
X141510Y229867D01*
Y227334D01*
X142166Y224887D01*
X143432Y222693D01*
X145223Y220902D01*
X147417Y219636D01*
X149864Y218980D01*
X152396D01*
X154843Y219636D01*
X157037Y220902D01*
X158828Y222693D01*
X160094Y224887D01*
X160750Y227334D01*
Y229867D01*
X160094Y232313D01*
X158828Y234507D01*
X157037Y236298D01*
X154843Y237564D01*
X152396Y238220D01*
D02*
G37*
G36*
X126996D02*
X124464D01*
X122017Y237564D01*
X119823Y236298D01*
X118032Y234507D01*
X116766Y232313D01*
X116110Y229867D01*
Y227334D01*
X116766Y224887D01*
X118032Y222693D01*
X119823Y220902D01*
X122017Y219636D01*
X124464Y218980D01*
X126996D01*
X129443Y219636D01*
X131637Y220902D01*
X133428Y222693D01*
X134694Y224887D01*
X135350Y227334D01*
Y229867D01*
X134694Y232313D01*
X133428Y234507D01*
X131637Y236298D01*
X129443Y237564D01*
X126996Y238220D01*
D02*
G37*
G36*
X660396Y236950D02*
X657863D01*
X655417Y236294D01*
X653223Y235028D01*
X651432Y233237D01*
X650166Y231043D01*
X649510Y228596D01*
Y226063D01*
X650166Y223617D01*
X651432Y221423D01*
X653223Y219632D01*
X655417Y218366D01*
X657863Y217710D01*
X660396D01*
X662843Y218366D01*
X665037Y219632D01*
X666828Y221423D01*
X668094Y223617D01*
X668750Y226063D01*
Y228596D01*
X668094Y231043D01*
X666828Y233237D01*
X665037Y235028D01*
X662843Y236294D01*
X660396Y236950D01*
D02*
G37*
G36*
X482429Y222980D02*
X480231D01*
X478107Y222411D01*
X476203Y221312D01*
X474648Y219757D01*
X473549Y217853D01*
X472980Y215729D01*
Y213531D01*
X473549Y211407D01*
X474648Y209503D01*
X476203Y207948D01*
X478107Y206849D01*
X480231Y206280D01*
X482429D01*
X484553Y206849D01*
X486457Y207948D01*
X488012Y209503D01*
X489111Y211407D01*
X489680Y213531D01*
Y215729D01*
X489111Y217853D01*
X488012Y219757D01*
X486457Y221312D01*
X484553Y222411D01*
X482429Y222980D01*
D02*
G37*
G36*
X187957Y215360D02*
X185424D01*
X182977Y214704D01*
X180783Y213438D01*
X178992Y211647D01*
X177726Y209453D01*
X177070Y207006D01*
Y204473D01*
X177726Y202027D01*
X178992Y199833D01*
X180783Y198042D01*
X182977Y196776D01*
X185424Y196120D01*
X187957D01*
X190403Y196776D01*
X192597Y198042D01*
X194388Y199833D01*
X195654Y202027D01*
X196310Y204473D01*
Y207006D01*
X195654Y209453D01*
X194388Y211647D01*
X192597Y213438D01*
X190403Y214704D01*
X187957Y215360D01*
D02*
G37*
G36*
X355597Y212820D02*
X353064D01*
X350617Y212164D01*
X348423Y210898D01*
X346632Y209107D01*
X345366Y206913D01*
X344710Y204466D01*
Y201933D01*
X345366Y199487D01*
X346632Y197293D01*
X348423Y195502D01*
X350617Y194236D01*
X353064Y193580D01*
X355597D01*
X358043Y194236D01*
X360237Y195502D01*
X362028Y197293D01*
X363294Y199487D01*
X363950Y201933D01*
Y204466D01*
X363294Y206913D01*
X362028Y209107D01*
X360237Y210898D01*
X358043Y212164D01*
X355597Y212820D01*
D02*
G37*
G36*
X330196D02*
X327663D01*
X325217Y212164D01*
X323023Y210898D01*
X321232Y209107D01*
X319966Y206913D01*
X319310Y204466D01*
Y201933D01*
X319966Y199487D01*
X321232Y197293D01*
X323023Y195502D01*
X325217Y194236D01*
X327663Y193580D01*
X330196D01*
X332643Y194236D01*
X334837Y195502D01*
X336628Y197293D01*
X337894Y199487D01*
X338550Y201933D01*
Y204466D01*
X337894Y206913D01*
X336628Y209107D01*
X334837Y210898D01*
X332643Y212164D01*
X330196Y212820D01*
D02*
G37*
G36*
X152396D02*
X149864D01*
X147417Y212164D01*
X145223Y210898D01*
X143432Y209107D01*
X142166Y206913D01*
X141510Y204466D01*
Y201933D01*
X142166Y199487D01*
X143432Y197293D01*
X145223Y195502D01*
X147417Y194236D01*
X149864Y193580D01*
X152396D01*
X154843Y194236D01*
X157037Y195502D01*
X158828Y197293D01*
X160094Y199487D01*
X160750Y201933D01*
Y204466D01*
X160094Y206913D01*
X158828Y209107D01*
X157037Y210898D01*
X154843Y212164D01*
X152396Y212820D01*
D02*
G37*
G36*
X126996D02*
X124464D01*
X122017Y212164D01*
X119823Y210898D01*
X118032Y209107D01*
X116766Y206913D01*
X116110Y204466D01*
Y201933D01*
X116766Y199487D01*
X118032Y197293D01*
X119823Y195502D01*
X122017Y194236D01*
X124464Y193580D01*
X126996D01*
X129443Y194236D01*
X131637Y195502D01*
X133428Y197293D01*
X134694Y199487D01*
X135350Y201933D01*
Y204466D01*
X134694Y206913D01*
X133428Y209107D01*
X131637Y210898D01*
X129443Y212164D01*
X126996Y212820D01*
D02*
G37*
G36*
X660396Y211550D02*
X657863D01*
X655417Y210894D01*
X653223Y209628D01*
X651432Y207837D01*
X650166Y205643D01*
X649510Y203197D01*
Y200664D01*
X650166Y198217D01*
X651432Y196023D01*
X653223Y194232D01*
X655417Y192966D01*
X657863Y192310D01*
X660396D01*
X662843Y192966D01*
X665037Y194232D01*
X666828Y196023D01*
X668094Y198217D01*
X668750Y200664D01*
Y203197D01*
X668094Y205643D01*
X666828Y207837D01*
X665037Y209628D01*
X662843Y210894D01*
X660396Y211550D01*
D02*
G37*
G36*
X469729Y209010D02*
X467531D01*
X465407Y208441D01*
X463503Y207342D01*
X461948Y205787D01*
X460849Y203883D01*
X460280Y201759D01*
Y199561D01*
X460849Y197437D01*
X461948Y195533D01*
X463503Y193978D01*
X465407Y192879D01*
X467531Y192310D01*
X469729D01*
X471853Y192879D01*
X473757Y193978D01*
X475312Y195533D01*
X476411Y197437D01*
X476980Y199561D01*
Y201759D01*
X476411Y203883D01*
X475312Y205787D01*
X473757Y207342D01*
X471853Y208441D01*
X469729Y209010D01*
D02*
G37*
G36*
X196310Y189960D02*
X177070D01*
Y170720D01*
X196310D01*
Y189960D01*
D02*
G37*
G36*
X355597Y187420D02*
X353064D01*
X350617Y186764D01*
X348423Y185498D01*
X346632Y183707D01*
X345366Y181513D01*
X344710Y179067D01*
Y176534D01*
X345366Y174087D01*
X346632Y171893D01*
X348423Y170102D01*
X350617Y168836D01*
X353064Y168180D01*
X355597D01*
X358043Y168836D01*
X360237Y170102D01*
X362028Y171893D01*
X363294Y174087D01*
X363950Y176534D01*
Y179067D01*
X363294Y181513D01*
X362028Y183707D01*
X360237Y185498D01*
X358043Y186764D01*
X355597Y187420D01*
D02*
G37*
G36*
X330196D02*
X327663D01*
X325217Y186764D01*
X323023Y185498D01*
X321232Y183707D01*
X319966Y181513D01*
X319310Y179067D01*
Y176534D01*
X319966Y174087D01*
X321232Y171893D01*
X323023Y170102D01*
X325217Y168836D01*
X327663Y168180D01*
X330196D01*
X332643Y168836D01*
X334837Y170102D01*
X336628Y171893D01*
X337894Y174087D01*
X338550Y176534D01*
Y179067D01*
X337894Y181513D01*
X336628Y183707D01*
X334837Y185498D01*
X332643Y186764D01*
X330196Y187420D01*
D02*
G37*
G36*
X152396D02*
X149864D01*
X147417Y186764D01*
X145223Y185498D01*
X143432Y183707D01*
X142166Y181513D01*
X141510Y179067D01*
Y176534D01*
X142166Y174087D01*
X143432Y171893D01*
X145223Y170102D01*
X147417Y168836D01*
X149864Y168180D01*
X152396D01*
X154843Y168836D01*
X157037Y170102D01*
X158828Y171893D01*
X160094Y174087D01*
X160750Y176534D01*
Y179067D01*
X160094Y181513D01*
X158828Y183707D01*
X157037Y185498D01*
X154843Y186764D01*
X152396Y187420D01*
D02*
G37*
G36*
X126996D02*
X124464D01*
X122017Y186764D01*
X119823Y185498D01*
X118032Y183707D01*
X116766Y181513D01*
X116110Y179067D01*
Y176534D01*
X116766Y174087D01*
X118032Y171893D01*
X119823Y170102D01*
X122017Y168836D01*
X124464Y168180D01*
X126996D01*
X129443Y168836D01*
X131637Y170102D01*
X133428Y171893D01*
X134694Y174087D01*
X135350Y176534D01*
Y179067D01*
X134694Y181513D01*
X133428Y183707D01*
X131637Y185498D01*
X129443Y186764D01*
X126996Y187420D01*
D02*
G37*
G36*
X660396Y186150D02*
X657863D01*
X655417Y185494D01*
X653223Y184228D01*
X651432Y182437D01*
X650166Y180243D01*
X649510Y177796D01*
Y175264D01*
X650166Y172817D01*
X651432Y170623D01*
X653223Y168832D01*
X655417Y167566D01*
X657863Y166910D01*
X660396D01*
X662843Y167566D01*
X665037Y168832D01*
X666828Y170623D01*
X668094Y172817D01*
X668750Y175264D01*
Y177796D01*
X668094Y180243D01*
X666828Y182437D01*
X665037Y184228D01*
X662843Y185494D01*
X660396Y186150D01*
D02*
G37*
G36*
X601809Y181070D02*
X599611D01*
X597487Y180501D01*
X595583Y179402D01*
X594028Y177847D01*
X592929Y175943D01*
X592360Y173819D01*
Y171621D01*
X592929Y169497D01*
X594028Y167593D01*
X595583Y166038D01*
X597487Y164939D01*
X599611Y164370D01*
X601809D01*
X603933Y164939D01*
X605837Y166038D01*
X607392Y167593D01*
X608491Y169497D01*
X609060Y171621D01*
Y173819D01*
X608491Y175943D01*
X607392Y177847D01*
X605837Y179402D01*
X603933Y180501D01*
X601809Y181070D01*
D02*
G37*
G36*
X552518Y158750D02*
X552450D01*
Y149860D01*
X561340D01*
Y149928D01*
X560648Y152512D01*
X559310Y154828D01*
X557418Y156720D01*
X555102Y158058D01*
X552518Y158750D01*
D02*
G37*
G36*
X549910D02*
X549842D01*
X547258Y158058D01*
X544942Y156720D01*
X543050Y154828D01*
X541712Y152512D01*
X541020Y149928D01*
Y149860D01*
X549910D01*
Y158750D01*
D02*
G37*
G36*
X355597Y162020D02*
X353064D01*
X350617Y161364D01*
X348423Y160098D01*
X346632Y158307D01*
X345366Y156113D01*
X344710Y153666D01*
Y151133D01*
X345366Y148687D01*
X346632Y146493D01*
X348423Y144702D01*
X350617Y143436D01*
X353064Y142780D01*
X355597D01*
X358043Y143436D01*
X360237Y144702D01*
X362028Y146493D01*
X363294Y148687D01*
X363950Y151133D01*
Y153666D01*
X363294Y156113D01*
X362028Y158307D01*
X360237Y160098D01*
X358043Y161364D01*
X355597Y162020D01*
D02*
G37*
G36*
X330196D02*
X327663D01*
X325217Y161364D01*
X323023Y160098D01*
X321232Y158307D01*
X319966Y156113D01*
X319310Y153666D01*
Y151133D01*
X319966Y148687D01*
X321232Y146493D01*
X323023Y144702D01*
X325217Y143436D01*
X327663Y142780D01*
X330196D01*
X332643Y143436D01*
X334837Y144702D01*
X336628Y146493D01*
X337894Y148687D01*
X338550Y151133D01*
Y153666D01*
X337894Y156113D01*
X336628Y158307D01*
X334837Y160098D01*
X332643Y161364D01*
X330196Y162020D01*
D02*
G37*
G36*
X152396D02*
X149864D01*
X147417Y161364D01*
X145223Y160098D01*
X143432Y158307D01*
X142166Y156113D01*
X141510Y153666D01*
Y151133D01*
X142166Y148687D01*
X143432Y146493D01*
X145223Y144702D01*
X147417Y143436D01*
X149864Y142780D01*
X152396D01*
X154843Y143436D01*
X157037Y144702D01*
X158828Y146493D01*
X160094Y148687D01*
X160750Y151133D01*
Y153666D01*
X160094Y156113D01*
X158828Y158307D01*
X157037Y160098D01*
X154843Y161364D01*
X152396Y162020D01*
D02*
G37*
G36*
X126996D02*
X124464D01*
X122017Y161364D01*
X119823Y160098D01*
X118032Y158307D01*
X116766Y156113D01*
X116110Y153666D01*
Y151133D01*
X116766Y148687D01*
X118032Y146493D01*
X119823Y144702D01*
X122017Y143436D01*
X124464Y142780D01*
X126996D01*
X129443Y143436D01*
X131637Y144702D01*
X133428Y146493D01*
X134694Y148687D01*
X135350Y151133D01*
Y153666D01*
X134694Y156113D01*
X133428Y158307D01*
X131637Y160098D01*
X129443Y161364D01*
X126996Y162020D01*
D02*
G37*
G36*
X660396Y160750D02*
X657863D01*
X655417Y160094D01*
X653223Y158828D01*
X651432Y157037D01*
X650166Y154843D01*
X649510Y152396D01*
Y149864D01*
X650166Y147417D01*
X651432Y145223D01*
X653223Y143432D01*
X655417Y142166D01*
X657863Y141510D01*
X660396D01*
X662843Y142166D01*
X665037Y143432D01*
X666828Y145223D01*
X668094Y147417D01*
X668750Y149864D01*
Y152396D01*
X668094Y154843D01*
X666828Y157037D01*
X665037Y158828D01*
X662843Y160094D01*
X660396Y160750D01*
D02*
G37*
G36*
X527047Y158210D02*
X524514D01*
X522067Y157554D01*
X519873Y156288D01*
X518082Y154497D01*
X516816Y152303D01*
X516160Y149857D01*
Y147324D01*
X516816Y144877D01*
X518082Y142683D01*
X519873Y140892D01*
X522067Y139626D01*
X524514Y138970D01*
X527047D01*
X529493Y139626D01*
X531687Y140892D01*
X533478Y142683D01*
X534744Y144877D01*
X535400Y147324D01*
Y149857D01*
X534744Y152303D01*
X533478Y154497D01*
X531687Y156288D01*
X529493Y157554D01*
X527047Y158210D01*
D02*
G37*
G36*
X501646D02*
X499114D01*
X496667Y157554D01*
X494473Y156288D01*
X492682Y154497D01*
X491416Y152303D01*
X490760Y149857D01*
Y147324D01*
X491416Y144877D01*
X492682Y142683D01*
X494473Y140892D01*
X496667Y139626D01*
X499114Y138970D01*
X501646D01*
X504093Y139626D01*
X506287Y140892D01*
X508078Y142683D01*
X509344Y144877D01*
X510000Y147324D01*
Y149857D01*
X509344Y152303D01*
X508078Y154497D01*
X506287Y156288D01*
X504093Y157554D01*
X501646Y158210D01*
D02*
G37*
G36*
X476246D02*
X473713D01*
X471267Y157554D01*
X469073Y156288D01*
X467282Y154497D01*
X466016Y152303D01*
X465360Y149857D01*
Y147324D01*
X466016Y144877D01*
X467282Y142683D01*
X469073Y140892D01*
X471267Y139626D01*
X473713Y138970D01*
X476246D01*
X478693Y139626D01*
X480887Y140892D01*
X482678Y142683D01*
X483944Y144877D01*
X484600Y147324D01*
Y149857D01*
X483944Y152303D01*
X482678Y154497D01*
X480887Y156288D01*
X478693Y157554D01*
X476246Y158210D01*
D02*
G37*
G36*
X450846D02*
X448313D01*
X445867Y157554D01*
X443673Y156288D01*
X441882Y154497D01*
X440616Y152303D01*
X439960Y149857D01*
Y147324D01*
X440616Y144877D01*
X441882Y142683D01*
X443673Y140892D01*
X445867Y139626D01*
X448313Y138970D01*
X450846D01*
X453293Y139626D01*
X455487Y140892D01*
X457278Y142683D01*
X458544Y144877D01*
X459200Y147324D01*
Y149857D01*
X458544Y152303D01*
X457278Y154497D01*
X455487Y156288D01*
X453293Y157554D01*
X450846Y158210D01*
D02*
G37*
G36*
X425447D02*
X422914D01*
X420467Y157554D01*
X418273Y156288D01*
X416482Y154497D01*
X415216Y152303D01*
X414560Y149857D01*
Y147324D01*
X415216Y144877D01*
X416482Y142683D01*
X418273Y140892D01*
X420467Y139626D01*
X422914Y138970D01*
X425447D01*
X427893Y139626D01*
X430087Y140892D01*
X431878Y142683D01*
X433144Y144877D01*
X433800Y147324D01*
Y149857D01*
X433144Y152303D01*
X431878Y154497D01*
X430087Y156288D01*
X427893Y157554D01*
X425447Y158210D01*
D02*
G37*
G36*
X408400D02*
X389160D01*
Y138970D01*
X408400D01*
Y158210D01*
D02*
G37*
G36*
X561340Y147320D02*
X552450D01*
Y138430D01*
X552518D01*
X555102Y139122D01*
X557418Y140460D01*
X559310Y142352D01*
X560648Y144668D01*
X561340Y147252D01*
Y147320D01*
D02*
G37*
G36*
X549910D02*
X541020D01*
Y147252D01*
X541712Y144668D01*
X543050Y142352D01*
X544942Y140460D01*
X547258Y139122D01*
X549842Y138430D01*
X549910D01*
Y147320D01*
D02*
G37*
G36*
X127068Y137160D02*
X127000D01*
Y128270D01*
X135890D01*
Y128338D01*
X135198Y130922D01*
X133860Y133238D01*
X131968Y135130D01*
X129652Y136468D01*
X127068Y137160D01*
D02*
G37*
G36*
X124460D02*
X124392D01*
X121808Y136468D01*
X119492Y135130D01*
X117600Y133238D01*
X116262Y130922D01*
X115570Y128338D01*
Y128270D01*
X124460D01*
Y137160D01*
D02*
G37*
G36*
X446869Y135350D02*
X444671D01*
X442547Y134781D01*
X440643Y133682D01*
X439088Y132127D01*
X437989Y130223D01*
X437420Y128099D01*
Y125901D01*
X437989Y123777D01*
X439088Y121873D01*
X440643Y120318D01*
X442547Y119219D01*
X444671Y118650D01*
X446869D01*
X448993Y119219D01*
X450897Y120318D01*
X452452Y121873D01*
X453551Y123777D01*
X454120Y125901D01*
Y128099D01*
X453551Y130223D01*
X452452Y132127D01*
X450897Y133682D01*
X448993Y134781D01*
X446869Y135350D01*
D02*
G37*
G36*
X152396Y136620D02*
X149864D01*
X147417Y135964D01*
X145223Y134698D01*
X143432Y132907D01*
X142166Y130713D01*
X141510Y128266D01*
Y125733D01*
X142166Y123287D01*
X143432Y121093D01*
X145223Y119302D01*
X147417Y118036D01*
X149864Y117380D01*
X152396D01*
X154843Y118036D01*
X157037Y119302D01*
X158828Y121093D01*
X160094Y123287D01*
X160750Y125733D01*
Y128266D01*
X160094Y130713D01*
X158828Y132907D01*
X157037Y134698D01*
X154843Y135964D01*
X152396Y136620D01*
D02*
G37*
G36*
X135890Y125730D02*
X127000D01*
Y116840D01*
X127068D01*
X129652Y117532D01*
X131968Y118870D01*
X133860Y120762D01*
X135198Y123078D01*
X135890Y125662D01*
Y125730D01*
D02*
G37*
G36*
X124460D02*
X115570D01*
Y125662D01*
X116262Y123078D01*
X117600Y120762D01*
X119492Y118870D01*
X121808Y117532D01*
X124392Y116840D01*
X124460D01*
Y125730D01*
D02*
G37*
G36*
X660396Y135350D02*
X657863D01*
X655417Y134694D01*
X653223Y133428D01*
X651432Y131637D01*
X650166Y129443D01*
X649510Y126996D01*
Y124464D01*
X650166Y122017D01*
X651432Y119823D01*
X653223Y118032D01*
X655417Y116766D01*
X657863Y116110D01*
X660396D01*
X662843Y116766D01*
X665037Y118032D01*
X666828Y119823D01*
X668094Y122017D01*
X668750Y124464D01*
Y126996D01*
X668094Y129443D01*
X666828Y131637D01*
X665037Y133428D01*
X662843Y134694D01*
X660396Y135350D01*
D02*
G37*
G36*
X407499Y116300D02*
X405301D01*
X403177Y115731D01*
X401273Y114632D01*
X399718Y113077D01*
X398619Y111173D01*
X398050Y109049D01*
Y106851D01*
X398619Y104727D01*
X399718Y102823D01*
X401273Y101268D01*
X403177Y100169D01*
X405301Y99600D01*
X407499D01*
X409623Y100169D01*
X411527Y101268D01*
X413082Y102823D01*
X414181Y104727D01*
X414750Y106851D01*
Y109049D01*
X414181Y111173D01*
X413082Y113077D01*
X411527Y114632D01*
X409623Y115731D01*
X407499Y116300D01*
D02*
G37*
G36*
X665532Y95130D02*
X665480D01*
Y86360D01*
X674250D01*
Y86412D01*
X673566Y88965D01*
X672244Y91255D01*
X670375Y93124D01*
X668085Y94446D01*
X665532Y95130D01*
D02*
G37*
G36*
X662940D02*
X662888D01*
X660335Y94446D01*
X658045Y93124D01*
X656176Y91255D01*
X654854Y88965D01*
X654170Y86412D01*
Y86360D01*
X662940D01*
Y95130D01*
D02*
G37*
G36*
X580442D02*
X580390D01*
Y86360D01*
X589160D01*
Y86412D01*
X588476Y88965D01*
X587154Y91255D01*
X585285Y93124D01*
X582995Y94446D01*
X580442Y95130D01*
D02*
G37*
G36*
X577850D02*
X577798D01*
X575245Y94446D01*
X572955Y93124D01*
X571086Y91255D01*
X569764Y88965D01*
X569080Y86412D01*
Y86360D01*
X577850D01*
Y95130D01*
D02*
G37*
G36*
X381052D02*
X381000D01*
Y86360D01*
X389770D01*
Y86412D01*
X389086Y88965D01*
X387764Y91255D01*
X385895Y93124D01*
X383605Y94446D01*
X381052Y95130D01*
D02*
G37*
G36*
X378460D02*
X378408D01*
X375855Y94446D01*
X373565Y93124D01*
X371696Y91255D01*
X370374Y88965D01*
X369690Y86412D01*
Y86360D01*
X378460D01*
Y95130D01*
D02*
G37*
G36*
X640061Y94590D02*
X637559D01*
X635143Y93943D01*
X632977Y92692D01*
X631208Y90923D01*
X629957Y88757D01*
X629310Y86341D01*
Y83839D01*
X629957Y81423D01*
X631208Y79257D01*
X632977Y77488D01*
X635143Y76237D01*
X637559Y75590D01*
X640061D01*
X642477Y76237D01*
X644643Y77488D01*
X646412Y79257D01*
X647663Y81423D01*
X648310Y83839D01*
Y86341D01*
X647663Y88757D01*
X646412Y90923D01*
X644643Y92692D01*
X642477Y93943D01*
X640061Y94590D01*
D02*
G37*
G36*
X622910D02*
X603910D01*
Y75590D01*
X622910D01*
Y94590D01*
D02*
G37*
G36*
X554971D02*
X552469D01*
X550053Y93943D01*
X547887Y92692D01*
X546118Y90923D01*
X544867Y88757D01*
X544220Y86341D01*
Y83839D01*
X544867Y81423D01*
X546118Y79257D01*
X547887Y77488D01*
X550053Y76237D01*
X552469Y75590D01*
X554971D01*
X557387Y76237D01*
X559553Y77488D01*
X561322Y79257D01*
X562573Y81423D01*
X563220Y83839D01*
Y86341D01*
X562573Y88757D01*
X561322Y90923D01*
X559553Y92692D01*
X557387Y93943D01*
X554971Y94590D01*
D02*
G37*
G36*
X537820D02*
X518820D01*
Y75590D01*
X537820D01*
Y94590D01*
D02*
G37*
G36*
X496551D02*
X494049D01*
X491633Y93943D01*
X489467Y92692D01*
X487698Y90923D01*
X486447Y88757D01*
X485800Y86341D01*
Y83839D01*
X486447Y81423D01*
X487698Y79257D01*
X489467Y77488D01*
X491633Y76237D01*
X494049Y75590D01*
X496551D01*
X498967Y76237D01*
X501133Y77488D01*
X502902Y79257D01*
X504153Y81423D01*
X504800Y83839D01*
Y86341D01*
X504153Y88757D01*
X502902Y90923D01*
X501133Y92692D01*
X498967Y93943D01*
X496551Y94590D01*
D02*
G37*
G36*
X479400D02*
X460400D01*
Y75590D01*
X479400D01*
Y94590D01*
D02*
G37*
G36*
X438131D02*
X435629D01*
X433213Y93943D01*
X431047Y92692D01*
X429278Y90923D01*
X428027Y88757D01*
X427380Y86341D01*
Y83839D01*
X428027Y81423D01*
X429278Y79257D01*
X431047Y77488D01*
X433213Y76237D01*
X435629Y75590D01*
X438131D01*
X440547Y76237D01*
X442713Y77488D01*
X444482Y79257D01*
X445733Y81423D01*
X446380Y83839D01*
Y86341D01*
X445733Y88757D01*
X444482Y90923D01*
X442713Y92692D01*
X440547Y93943D01*
X438131Y94590D01*
D02*
G37*
G36*
X420980D02*
X401980D01*
Y75590D01*
X420980D01*
Y94590D01*
D02*
G37*
G36*
X355581D02*
X353079D01*
X350663Y93943D01*
X348497Y92692D01*
X346728Y90923D01*
X345477Y88757D01*
X344830Y86341D01*
Y83839D01*
X345477Y81423D01*
X346728Y79257D01*
X348497Y77488D01*
X350663Y76237D01*
X353079Y75590D01*
X355581D01*
X357997Y76237D01*
X360163Y77488D01*
X361932Y79257D01*
X363183Y81423D01*
X363830Y83839D01*
Y86341D01*
X363183Y88757D01*
X361932Y90923D01*
X360163Y92692D01*
X357997Y93943D01*
X355581Y94590D01*
D02*
G37*
G36*
X338430D02*
X319430D01*
Y75590D01*
X338430D01*
Y94590D01*
D02*
G37*
G36*
X674250Y83820D02*
X665480D01*
Y75050D01*
X665532D01*
X668085Y75734D01*
X670375Y77056D01*
X672244Y78925D01*
X673566Y81215D01*
X674250Y83768D01*
Y83820D01*
D02*
G37*
G36*
X662940D02*
X654170D01*
Y83768D01*
X654854Y81215D01*
X656176Y78925D01*
X658045Y77056D01*
X660335Y75734D01*
X662888Y75050D01*
X662940D01*
Y83820D01*
D02*
G37*
G36*
X589160D02*
X580390D01*
Y75050D01*
X580442D01*
X582995Y75734D01*
X585285Y77056D01*
X587154Y78925D01*
X588476Y81215D01*
X589160Y83768D01*
Y83820D01*
D02*
G37*
G36*
X577850D02*
X569080D01*
Y83768D01*
X569764Y81215D01*
X571086Y78925D01*
X572955Y77056D01*
X575245Y75734D01*
X577798Y75050D01*
X577850D01*
Y83820D01*
D02*
G37*
G36*
X389770D02*
X381000D01*
Y75050D01*
X381052D01*
X383605Y75734D01*
X385895Y77056D01*
X387764Y78925D01*
X389086Y81215D01*
X389770Y83768D01*
Y83820D01*
D02*
G37*
G36*
X378460D02*
X369690D01*
Y83768D01*
X370374Y81215D01*
X371696Y78925D01*
X373565Y77056D01*
X375855Y75734D01*
X378408Y75050D01*
X378460D01*
Y83820D01*
D02*
G37*
%LPD*%
D22*
X240030Y208280D02*
X288290Y256540D01*
X240030Y163830D02*
Y208280D01*
X273590Y141947D02*
X297967Y117570D01*
X273590Y141947D02*
Y240465D01*
X288290Y255165D01*
Y256540D01*
X297967Y117570D02*
X315476D01*
X338255Y112300D02*
X352955Y127000D01*
X320746Y112300D02*
X338255D01*
X315476Y117570D02*
X320746Y112300D01*
X352955Y127000D02*
X354330D01*
D25*
X328930Y85090D02*
D03*
X613410D02*
D03*
X528320D02*
D03*
X411480D02*
D03*
X469900D02*
D03*
X365760Y346710D02*
D03*
X562610D02*
D03*
X594360D02*
D03*
X454660D02*
D03*
X422910D02*
D03*
D26*
X354330Y85090D02*
D03*
X379730D02*
D03*
X664210D02*
D03*
X638810D02*
D03*
X579120D02*
D03*
X553720D02*
D03*
X436880D02*
D03*
X495300D02*
D03*
X340360Y346710D02*
D03*
X537210D02*
D03*
X619760D02*
D03*
X505460D02*
D03*
X480060D02*
D03*
X397510D02*
D03*
D27*
X328930Y127000D02*
D03*
X151130D02*
D03*
X354330D02*
D03*
X125730D02*
D03*
X151130Y279400D02*
D03*
Y228600D02*
D03*
Y304800D02*
D03*
Y254000D02*
D03*
Y152400D02*
D03*
Y177800D02*
D03*
Y203200D02*
D03*
X125730Y254000D02*
D03*
Y279400D02*
D03*
Y228600D02*
D03*
Y304800D02*
D03*
Y203200D02*
D03*
Y152400D02*
D03*
Y177800D02*
D03*
X354330Y279400D02*
D03*
Y228600D02*
D03*
Y254000D02*
D03*
Y152400D02*
D03*
Y177800D02*
D03*
Y203200D02*
D03*
X328930Y304800D02*
D03*
Y228600D02*
D03*
Y279400D02*
D03*
Y254000D02*
D03*
Y152400D02*
D03*
Y177800D02*
D03*
Y203200D02*
D03*
X288290Y307340D02*
D03*
Y281940D02*
D03*
X186690Y307340D02*
D03*
Y281940D02*
D03*
Y205740D02*
D03*
Y256540D02*
D03*
Y231140D02*
D03*
X288290Y256540D02*
D03*
Y180340D02*
D03*
Y205740D02*
D03*
Y231140D02*
D03*
X659130Y278130D02*
D03*
Y252730D02*
D03*
Y201930D02*
D03*
Y176530D02*
D03*
Y151130D02*
D03*
Y227330D02*
D03*
Y125730D02*
D03*
X457454Y278130D02*
D03*
X492506D02*
D03*
X551180Y148590D02*
D03*
X525780D02*
D03*
X500380D02*
D03*
X474980D02*
D03*
X449580D02*
D03*
X424180D02*
D03*
D28*
X354330Y304800D02*
D03*
X659130Y303530D02*
D03*
D29*
X186690Y180340D02*
D03*
X398780Y148590D02*
D03*
D30*
X654380Y341030D02*
D03*
X110250D02*
D03*
D31*
X306890Y104140D02*
D03*
X240030Y163830D02*
D03*
X445770Y127000D02*
D03*
X406400Y107950D02*
D03*
X468630Y200660D02*
D03*
X481330Y214630D02*
D03*
X600710Y172720D02*
D03*
X407670Y236220D02*
D03*
X415290Y256540D02*
D03*
X447040Y247650D02*
D03*
M02*
