G04*
G04 #@! TF.GenerationSoftware,Altium Limited,Altium Designer,23.11.1 (41)*
G04*
G04 Layer_Physical_Order=4*
G04 Layer_Color=16711680*
%FSLAX44Y44*%
%MOMM*%
G71*
G04*
G04 #@! TF.SameCoordinates,1F3C10B6-2D31-4D23-80B0-F6AB3A826ACA*
G04*
G04*
G04 #@! TF.FilePolarity,Positive*
G04*
G01*
G75*
%ADD21C,0.3810*%
%ADD22C,1.0160*%
%ADD23C,0.5080*%
%ADD24C,1.1430*%
%ADD25R,1.5000X1.5000*%
%ADD26C,1.5000*%
%ADD27C,1.5240*%
%ADD28R,1.5240X1.5240*%
%ADD29R,1.5240X1.5240*%
%ADD30C,3.0480*%
%ADD31C,1.2700*%
%ADD32R,0.9300X0.8700*%
%ADD33R,1.0400X1.0200*%
G04:AMPARAMS|DCode=34|XSize=3.24mm|YSize=1.31mm|CornerRadius=0.0983mm|HoleSize=0mm|Usage=FLASHONLY|Rotation=90.000|XOffset=0mm|YOffset=0mm|HoleType=Round|Shape=RoundedRectangle|*
%AMROUNDEDRECTD34*
21,1,3.2400,1.1135,0,0,90.0*
21,1,3.0435,1.3100,0,0,90.0*
1,1,0.1965,0.5568,1.5218*
1,1,0.1965,0.5568,-1.5218*
1,1,0.1965,-0.5568,-1.5218*
1,1,0.1965,-0.5568,1.5218*
%
%ADD34ROUNDEDRECTD34*%
G04:AMPARAMS|DCode=35|XSize=0.93mm|YSize=1.31mm|CornerRadius=0.0698mm|HoleSize=0mm|Usage=FLASHONLY|Rotation=90.000|XOffset=0mm|YOffset=0mm|HoleType=Round|Shape=RoundedRectangle|*
%AMROUNDEDRECTD35*
21,1,0.9300,1.1705,0,0,90.0*
21,1,0.7905,1.3100,0,0,90.0*
1,1,0.1395,0.5853,0.3953*
1,1,0.1395,0.5853,-0.3953*
1,1,0.1395,-0.5853,-0.3953*
1,1,0.1395,-0.5853,0.3953*
%
%ADD35ROUNDEDRECTD35*%
D21*
X223139Y180435D02*
X230219Y187515D01*
X250505D01*
X257585Y180435D01*
X205054D02*
X223139D01*
X306890Y104140D02*
X402590D01*
X302445Y137186D02*
X329141Y110490D01*
X302445Y137186D02*
Y140915D01*
X257585Y180435D02*
X259196D01*
X287986Y151645D01*
X291715D02*
X302445Y140915D01*
X287986Y151645D02*
X291715D01*
X402590Y104140D02*
X406400Y107950D01*
X450359Y122411D02*
X450850Y121161D01*
X445770Y127000D02*
X450359Y122411D01*
X450850Y113685D02*
X452290Y110490D01*
X450850Y113685D02*
Y121161D01*
X460783Y73685D02*
X479017D01*
X481305Y75972D01*
X448285Y86182D02*
Y98772D01*
X481305Y75972D02*
Y112098D01*
X443285Y103772D02*
X448285Y98772D01*
X454354Y133909D02*
X465259Y123003D01*
X389543Y137065D02*
X423317D01*
X454354Y133909D02*
Y137065D01*
X435515Y121852D02*
Y124867D01*
X423317Y137065D02*
X435515Y124867D01*
Y121852D02*
X443285Y114082D01*
X448285Y86182D02*
X460783Y73685D01*
X470399Y123003D02*
X481305Y112098D01*
X443285Y103772D02*
Y114082D01*
X465259Y123003D02*
X470399D01*
X329141Y110490D02*
X393870D01*
X404030Y120650D02*
X404130D01*
X393870Y110490D02*
X404030Y120650D01*
X186690Y180340D02*
X204959D01*
X340561Y146713D02*
X343718D01*
X328930Y127000D02*
Y130093D01*
X336505Y137668D01*
Y142657D01*
X343718Y146713D02*
X349556Y140875D01*
X204959Y180340D02*
X205054Y180435D01*
X336505Y142657D02*
X340561Y146713D01*
X454354Y137065D02*
X462280Y144991D01*
X385448Y141160D02*
X389543Y137065D01*
X365639Y141160D02*
X385448D01*
X365354Y140875D02*
X365639Y141160D01*
X349556Y140875D02*
X365354D01*
X564939Y151130D02*
X659130D01*
X555954Y160115D02*
X564939Y151130D01*
X354330Y228600D02*
X421993Y160937D01*
X354330Y254000D02*
X447393Y160937D01*
Y150777D02*
Y160937D01*
Y150777D02*
X449580Y148590D01*
X393065Y154305D02*
X398780Y148590D01*
X393065Y154305D02*
Y164465D01*
X354330Y203200D02*
X393065Y164465D01*
X421993Y150777D02*
X424180Y148590D01*
X421993Y150777D02*
Y160937D01*
X470206Y160115D02*
X555954D01*
X462280Y152189D02*
X470206Y160115D01*
X462280Y144991D02*
Y152189D01*
D22*
X242490Y163830D02*
X278560Y127760D01*
X240030Y163830D02*
X242490D01*
X278560Y118110D02*
Y127760D01*
X211660Y118110D02*
X278560D01*
X180340Y96590D02*
X181720Y95210D01*
X211660D01*
X176427Y96590D02*
X180340D01*
X168180Y104837D02*
Y118543D01*
X173487Y123850D02*
X178390D01*
X168180Y118543D02*
X173487Y123850D01*
X178390D02*
X180340Y125800D01*
X168180Y104837D02*
X176427Y96590D01*
X151130Y151097D02*
X176427Y125800D01*
X151130Y151097D02*
Y152400D01*
X418950Y125710D02*
X433318Y111342D01*
Y101032D02*
Y111342D01*
X418830Y125730D02*
X418850Y125710D01*
X418950D01*
X433318Y101032D02*
X435954Y98397D01*
Y86016D02*
X436880Y85090D01*
X435954Y86016D02*
Y98397D01*
X180340Y111690D02*
X191700D01*
X197690Y117680D02*
X211230D01*
X191700Y111690D02*
X197690Y117680D01*
X211230D02*
X211660Y118110D01*
X467190Y110490D02*
X469900Y107780D01*
Y85090D02*
Y107780D01*
X467090Y110490D02*
X467190D01*
D23*
X468630Y200660D02*
Y201930D01*
X415290Y255270D02*
X468630Y201930D01*
X447040Y247650D02*
X448310D01*
X481330Y214630D01*
X469900Y173990D02*
X599440D01*
X407670Y236220D02*
X469900Y173990D01*
X599440D02*
X600710Y172720D01*
X415290Y255270D02*
Y256540D01*
X425990Y292640D02*
X480060Y346710D01*
X354330Y152400D02*
Y152413D01*
X342170Y164573D02*
X354330Y152413D01*
X342170Y164573D02*
Y284437D01*
X350373Y292640D01*
X328930Y152387D02*
Y152400D01*
X350373Y292640D02*
X425990D01*
X354330Y279400D02*
X420596D01*
X434026Y265970D01*
X513620D02*
X594360Y346710D01*
X434026Y265970D02*
X513620D01*
D24*
X197209Y140900D02*
X234204Y177895D01*
X125730Y127000D02*
X170315Y82415D01*
X180340Y140900D02*
X197209D01*
X246520Y177895D02*
X282390Y142025D01*
X287730D02*
X292825Y136930D01*
X275950Y82415D02*
X292825Y99290D01*
X234204Y177895D02*
X246520D01*
X282390Y142025D02*
X287730D01*
X292825Y99290D02*
Y136930D01*
X170315Y82415D02*
X275950D01*
X289321Y205740D02*
X291861Y203200D01*
Y177800D02*
X328930D01*
X288290Y180340D02*
X289321D01*
X291861Y203200D02*
X328930D01*
X289321Y180340D02*
X291861Y177800D01*
X288290Y205740D02*
X289321D01*
X313595Y273048D02*
Y282035D01*
Y273048D02*
X322040Y264603D01*
Y261921D02*
Y264603D01*
Y261921D02*
X328930Y255031D01*
Y254000D02*
Y255031D01*
X300165Y267485D02*
Y269034D01*
X288290Y280909D02*
X300165Y269034D01*
X288290Y280909D02*
Y281940D01*
X300165Y267485D02*
X308610Y259040D01*
Y248920D02*
Y259040D01*
X288290Y307340D02*
X313595Y282035D01*
X308610Y248920D02*
X328930Y228600D01*
D25*
Y85090D02*
D03*
X613410D02*
D03*
X528320D02*
D03*
X411480D02*
D03*
X469900D02*
D03*
X365760Y346710D02*
D03*
X562610D02*
D03*
X594360D02*
D03*
X454660D02*
D03*
X422910D02*
D03*
D26*
X354330Y85090D02*
D03*
X379730D02*
D03*
X664210D02*
D03*
X638810D02*
D03*
X579120D02*
D03*
X553720D02*
D03*
X436880D02*
D03*
X495300D02*
D03*
X340360Y346710D02*
D03*
X537210D02*
D03*
X619760D02*
D03*
X505460D02*
D03*
X480060D02*
D03*
X397510D02*
D03*
D27*
X328930Y127000D02*
D03*
X151130D02*
D03*
X354330D02*
D03*
X125730D02*
D03*
X151130Y279400D02*
D03*
Y228600D02*
D03*
Y304800D02*
D03*
Y254000D02*
D03*
Y152400D02*
D03*
Y177800D02*
D03*
Y203200D02*
D03*
X125730Y254000D02*
D03*
Y279400D02*
D03*
Y228600D02*
D03*
Y304800D02*
D03*
Y203200D02*
D03*
Y152400D02*
D03*
Y177800D02*
D03*
X354330Y279400D02*
D03*
Y228600D02*
D03*
Y254000D02*
D03*
Y152400D02*
D03*
Y177800D02*
D03*
Y203200D02*
D03*
X328930Y304800D02*
D03*
Y228600D02*
D03*
Y279400D02*
D03*
Y254000D02*
D03*
Y152400D02*
D03*
Y177800D02*
D03*
Y203200D02*
D03*
X288290Y307340D02*
D03*
Y281940D02*
D03*
X186690Y307340D02*
D03*
Y281940D02*
D03*
Y205740D02*
D03*
Y256540D02*
D03*
Y231140D02*
D03*
X288290Y256540D02*
D03*
Y180340D02*
D03*
Y205740D02*
D03*
Y231140D02*
D03*
X659130Y278130D02*
D03*
Y252730D02*
D03*
Y201930D02*
D03*
Y176530D02*
D03*
Y151130D02*
D03*
Y227330D02*
D03*
Y125730D02*
D03*
X457454Y278130D02*
D03*
X492506D02*
D03*
X551180Y148590D02*
D03*
X525780D02*
D03*
X500380D02*
D03*
X474980D02*
D03*
X449580D02*
D03*
X424180D02*
D03*
D28*
X354330Y304800D02*
D03*
X659130Y303530D02*
D03*
D29*
X186690Y180340D02*
D03*
X398780Y148590D02*
D03*
D30*
X654380Y341030D02*
D03*
X110250D02*
D03*
D31*
X306890Y104140D02*
D03*
X240030Y163830D02*
D03*
X445770Y127000D02*
D03*
X406400Y107950D02*
D03*
X468630Y200660D02*
D03*
X481330Y214630D02*
D03*
X600710Y172720D02*
D03*
X407670Y236220D02*
D03*
X415290Y256540D02*
D03*
X447040Y247650D02*
D03*
D32*
X180340Y111690D02*
D03*
Y96590D02*
D03*
Y140900D02*
D03*
Y125800D02*
D03*
D33*
X418830Y125730D02*
D03*
X404130D02*
D03*
X452390Y110490D02*
D03*
X467090D02*
D03*
D34*
X278560Y118110D02*
D03*
D35*
X211660Y141010D02*
D03*
Y118110D02*
D03*
Y95210D02*
D03*
M02*
