G04*
G04 #@! TF.GenerationSoftware,Altium Limited,Altium Designer,23.11.1 (41)*
G04*
G04 Layer_Color=32896*
%FSLAX44Y44*%
%MOMM*%
G71*
G04*
G04 #@! TF.SameCoordinates,1F3C10B6-2D31-4D23-80B0-F6AB3A826ACA*
G04*
G04*
G04 #@! TF.FilePolarity,Positive*
G04*
G01*
G75*
%ADD10C,0.2000*%
%ADD11C,0.2540*%
%ADD13C,0.1270*%
D10*
X199080Y95210D02*
G03*
X199080Y95210I-1000J0D01*
G01*
D11*
X199390Y167640D02*
Y320040D01*
X275590Y167640D02*
Y320040D01*
Y167640D02*
X300990D01*
X275590Y320040D02*
X300990D01*
X173990Y167640D02*
X199390D01*
X173990D02*
X173990Y320040D01*
X173990D02*
X199390D01*
X300990Y167640D02*
Y320040D01*
X646430Y113030D02*
Y316230D01*
X671830Y113030D02*
Y316230D01*
X646430Y113030D02*
X671830D01*
X646430Y316230D02*
X671830D01*
D13*
X263710Y84510D02*
Y100510D01*
Y136810D02*
Y151710D01*
X226510Y149210D02*
Y151710D01*
Y84510D02*
Y87110D01*
Y151710D02*
X263710D01*
X226510Y84510D02*
X263710D01*
X507154Y117514D02*
X508001Y118360D01*
X509694D01*
X510540Y117514D01*
Y114128D01*
X509694Y113282D01*
X508001D01*
X507154Y114128D01*
X502076Y118360D02*
X505462D01*
Y113282D01*
X502076D01*
X505462Y115821D02*
X503769D01*
X500383Y113282D02*
Y118360D01*
X496998Y113282D01*
Y118360D01*
X495305D02*
X491919D01*
X493612D01*
Y113282D01*
X486841Y118360D02*
X490227D01*
Y113282D01*
X486841D01*
X490227Y115821D02*
X488534D01*
X485148Y113282D02*
Y118360D01*
X482609D01*
X481763Y117514D01*
Y115821D01*
X482609Y114975D01*
X485148D01*
X483456D02*
X481763Y113282D01*
X510540Y109218D02*
Y104140D01*
X507154D01*
X502076Y109218D02*
X505462D01*
Y104140D01*
X502076D01*
X505462Y106679D02*
X503769D01*
X500383Y109218D02*
Y104140D01*
X497844D01*
X496998Y104986D01*
Y108372D01*
X497844Y109218D01*
X500383D01*
X465512Y120651D02*
Y125729D01*
X462973D01*
X462126Y124883D01*
Y123190D01*
X462973Y122344D01*
X465512D01*
X463819D02*
X462126Y120651D01*
X457048Y124883D02*
X457894Y125729D01*
X459587D01*
X460434Y124883D01*
Y121497D01*
X459587Y120651D01*
X457894D01*
X457048Y121497D01*
X394122Y127001D02*
Y132079D01*
X391583D01*
X390736Y131233D01*
Y129540D01*
X391583Y128694D01*
X394122D01*
X392429D02*
X390736Y127001D01*
X385658Y131233D02*
X386504Y132079D01*
X388197D01*
X389044Y131233D01*
Y127847D01*
X388197Y127001D01*
X386504D01*
X385658Y127847D01*
Y129540D01*
X387351D01*
X300990Y332738D02*
X299297D01*
X300144D01*
Y327660D01*
X300990D01*
X299297D01*
X294219Y332738D02*
X295912D01*
X296758Y331892D01*
Y328506D01*
X295912Y327660D01*
X294219D01*
X293372Y328506D01*
Y331892D01*
X294219Y332738D01*
X291680Y327660D02*
Y331046D01*
X289987Y332738D01*
X288294Y331046D01*
Y327660D01*
Y330199D01*
X291680D01*
X286601Y332738D02*
Y327660D01*
X284062D01*
X283216Y328506D01*
Y331892D01*
X284062Y332738D01*
X286601D01*
X281523Y327660D02*
Y331046D01*
X279830Y332738D01*
X278137Y331046D01*
Y327660D01*
Y330199D01*
X281523D01*
X276445Y327660D02*
Y332738D01*
X273905D01*
X273059Y331892D01*
Y330199D01*
X273905Y329353D01*
X276445D01*
X271366Y332738D02*
X267981D01*
X269674D01*
Y327660D01*
X285749Y139279D02*
X281517D01*
X280671Y140125D01*
Y141818D01*
X281517Y142664D01*
X285749D01*
X284903Y144357D02*
X285749Y145204D01*
Y146896D01*
X284903Y147743D01*
X284056D01*
X283210Y146896D01*
Y146050D01*
Y146896D01*
X282364Y147743D01*
X281517D01*
X280671Y146896D01*
Y145204D01*
X281517Y144357D01*
X284903Y149436D02*
X285749Y150282D01*
Y151975D01*
X284903Y152821D01*
X284056D01*
X283210Y151975D01*
Y151128D01*
Y151975D01*
X282364Y152821D01*
X281517D01*
X280671Y151975D01*
Y150282D01*
X281517Y149436D01*
X165524Y111334D02*
X164678Y112180D01*
Y113873D01*
X165524Y114719D01*
X168910D01*
X169756Y113873D01*
Y112180D01*
X168910Y111334D01*
X165524Y109641D02*
X164678Y108795D01*
Y107102D01*
X165524Y106256D01*
X166370D01*
X167217Y107102D01*
Y107948D01*
Y107102D01*
X168063Y106256D01*
X168910D01*
X169756Y107102D01*
Y108795D01*
X168910Y109641D01*
X165524Y104563D02*
X164678Y103716D01*
Y102024D01*
X165524Y101177D01*
X166370D01*
X167217Y102024D01*
Y102870D01*
Y102024D01*
X168063Y101177D01*
X168910D01*
X169756Y102024D01*
Y103716D01*
X168910Y104563D01*
X170602Y99484D02*
Y96099D01*
X169756Y91020D02*
Y94406D01*
X166370Y91020D01*
X165524D01*
X164678Y91867D01*
Y93560D01*
X165524Y94406D01*
Y140968D02*
X164678Y141814D01*
Y143507D01*
X165524Y144353D01*
X168910D01*
X169756Y143507D01*
Y141814D01*
X168910Y140968D01*
X165524Y139275D02*
X164678Y138428D01*
Y136735D01*
X165524Y135889D01*
X166370D01*
X167217Y136735D01*
Y137582D01*
Y136735D01*
X168063Y135889D01*
X168910D01*
X169756Y136735D01*
Y138428D01*
X168910Y139275D01*
X165524Y134196D02*
X164678Y133350D01*
Y131657D01*
X165524Y130811D01*
X166370D01*
X167217Y131657D01*
Y132504D01*
Y131657D01*
X168063Y130811D01*
X168910D01*
X169756Y131657D01*
Y133350D01*
X168910Y134196D01*
X170602Y129118D02*
Y125732D01*
X169756Y124040D02*
Y122347D01*
Y123193D01*
X164678D01*
X165524Y124040D01*
X641349Y209970D02*
X637964D01*
X636271Y208277D01*
X637964Y206584D01*
X641349D01*
X638810D01*
Y209970D01*
X637117Y201506D02*
X636271Y202352D01*
Y204045D01*
X637117Y204891D01*
X640503D01*
X641349Y204045D01*
Y202352D01*
X640503Y201506D01*
X637117Y196427D02*
X636271Y197274D01*
Y198966D01*
X637117Y199813D01*
X640503D01*
X641349Y198966D01*
Y197274D01*
X640503Y196427D01*
X636271Y191349D02*
Y194734D01*
X641349D01*
Y191349D01*
X638810Y194734D02*
Y193042D01*
X636271Y189656D02*
X641349D01*
Y186271D01*
X437304Y107102D02*
X438151Y107948D01*
X439844D01*
X440690Y107102D01*
Y103716D01*
X439844Y102870D01*
X438151D01*
X437304Y103716D01*
Y105409D01*
X438997D01*
X435612Y107948D02*
Y103716D01*
X434765Y102870D01*
X433073D01*
X432226Y103716D01*
Y107948D01*
X430533Y102870D02*
Y107948D01*
X427148Y102870D01*
Y107948D01*
X425455D02*
Y102870D01*
X422069D01*
X416991Y107948D02*
X420377D01*
Y102870D01*
X416991D01*
X420377Y105409D02*
X418684D01*
X415298Y107948D02*
Y102870D01*
X412759D01*
X411913Y103716D01*
Y107102D01*
X412759Y107948D01*
X415298D01*
X406834Y102870D02*
X410220D01*
X406834Y106256D01*
Y107102D01*
X407681Y107948D01*
X409374D01*
X410220Y107102D01*
X153842Y326698D02*
X154689Y327545D01*
X156382D01*
X157228Y326698D01*
Y323313D01*
X156382Y322467D01*
X154689D01*
X153842Y323313D01*
X152150Y322467D02*
Y327545D01*
X149610D01*
X148764Y326698D01*
Y325006D01*
X149610Y324159D01*
X152150D01*
X147071Y327545D02*
Y323313D01*
X146225Y322467D01*
X144532D01*
X143686Y323313D01*
Y327545D01*
X342900Y328930D02*
Y323852D01*
X345439D01*
X346286Y324698D01*
Y326391D01*
X345439Y327237D01*
X342900D01*
X350518Y323852D02*
X348825D01*
X347978Y324698D01*
Y328084D01*
X348825Y328930D01*
X350518D01*
X351364Y328084D01*
Y324698D01*
X350518Y323852D01*
X353057D02*
Y328930D01*
X354749Y327237D01*
X356442Y328930D01*
Y323852D01*
X361521D02*
X358135D01*
Y328930D01*
X361521D01*
X358135Y326391D02*
X359828D01*
X363213Y328930D02*
Y323852D01*
X365753D01*
X366599Y324698D01*
Y326391D01*
X365753Y327237D01*
X363213D01*
X364906D02*
X366599Y328930D01*
X411056Y323428D02*
X410209Y322582D01*
X408516D01*
X407670Y323428D01*
Y324274D01*
X408516Y325121D01*
X410209D01*
X411056Y325967D01*
Y326814D01*
X410209Y327660D01*
X408516D01*
X407670Y326814D01*
X412748Y327660D02*
Y322582D01*
X415288D01*
X416134Y323428D01*
Y325121D01*
X415288Y325967D01*
X412748D01*
X417827Y322582D02*
Y327660D01*
Y325967D01*
X421212Y322582D01*
X418673Y325121D01*
X421212Y327660D01*
X471170Y326390D02*
Y321312D01*
X473709D01*
X474556Y322158D01*
Y323851D01*
X473709Y324697D01*
X471170D01*
X472863D02*
X474556Y326390D01*
X476248Y321312D02*
X477941D01*
X477095D01*
Y326390D01*
X476248D01*
X477941D01*
X480480D02*
Y321312D01*
X483866Y326390D01*
Y321312D01*
X488944Y322158D02*
X488098Y321312D01*
X486405D01*
X485559Y322158D01*
Y325544D01*
X486405Y326390D01*
X488098D01*
X488944Y325544D01*
Y323851D01*
X487252D01*
X490637Y321312D02*
Y326390D01*
X494023D01*
X499101Y321312D02*
X495715D01*
Y326390D01*
X499101D01*
X495715Y323851D02*
X497408D01*
X500794Y321312D02*
Y326390D01*
X503333D01*
X504179Y325544D01*
Y322158D01*
X503333Y321312D01*
X500794D01*
X536786Y323428D02*
X535939Y322582D01*
X534246D01*
X533400Y323428D01*
Y326814D01*
X534246Y327660D01*
X535939D01*
X536786Y326814D01*
Y325121D01*
X535093D01*
X538478Y322582D02*
Y326814D01*
X539325Y327660D01*
X541017D01*
X541864Y326814D01*
Y322582D01*
X543557Y327660D02*
Y322582D01*
X546942Y327660D01*
Y322582D01*
X548635D02*
Y327660D01*
X552021D01*
X557099Y322582D02*
X553713D01*
Y327660D01*
X557099D01*
X553713Y325121D02*
X555406D01*
X558792Y322582D02*
Y327660D01*
X561331D01*
X562177Y326814D01*
Y323428D01*
X561331Y322582D01*
X558792D01*
X563870Y327660D02*
X565563D01*
X564716D01*
Y322582D01*
X563870Y323428D01*
X594360Y322582D02*
Y327660D01*
X596053Y325967D01*
X597746Y327660D01*
Y322582D01*
X599438D02*
X601131D01*
X600285D01*
Y327660D01*
X599438D01*
X601131D01*
X603670D02*
Y322582D01*
X607056Y327660D01*
Y322582D01*
X612134Y323428D02*
X611288Y322582D01*
X609595D01*
X608749Y323428D01*
Y326814D01*
X609595Y327660D01*
X611288D01*
X612134Y326814D01*
Y325121D01*
X610442D01*
X617213Y323428D02*
X616366Y322582D01*
X614673D01*
X613827Y323428D01*
Y324274D01*
X614673Y325121D01*
X616366D01*
X617213Y325967D01*
Y326814D01*
X616366Y327660D01*
X614673D01*
X613827Y326814D01*
X618905Y322582D02*
Y327660D01*
X620598Y325967D01*
X622291Y327660D01*
Y322582D01*
X651934Y106678D02*
X652781Y107525D01*
X654474D01*
X655320Y106678D01*
Y105832D01*
X654474Y104986D01*
X652781D01*
X651934Y104139D01*
Y103293D01*
X652781Y102446D01*
X654474D01*
X655320Y103293D01*
X646856Y107525D02*
X650242D01*
Y102446D01*
X646856D01*
X650242Y104986D02*
X648549D01*
X645163Y101600D02*
X641778D01*
X640085Y107525D02*
Y102446D01*
X638392Y104139D01*
X636699Y102446D01*
Y107525D01*
X635007D02*
X633314D01*
X634160D01*
Y102446D01*
X635007D01*
X633314D01*
X630775D02*
Y107525D01*
X627389Y102446D01*
Y107525D01*
X622311Y106678D02*
X623157Y107525D01*
X624850D01*
X625696Y106678D01*
Y103293D01*
X624850Y102446D01*
X623157D01*
X622311Y103293D01*
Y104986D01*
X624003D01*
X568114Y107948D02*
X568961Y108795D01*
X570654D01*
X571500Y107948D01*
Y107102D01*
X570654Y106256D01*
X568961D01*
X568114Y105409D01*
Y104563D01*
X568961Y103716D01*
X570654D01*
X571500Y104563D01*
X563036Y108795D02*
X566422D01*
Y103716D01*
X563036D01*
X566422Y106256D02*
X564729D01*
X561343Y102870D02*
X557958D01*
X556265Y103716D02*
Y108795D01*
X553726D01*
X552879Y107948D01*
Y106256D01*
X553726Y105409D01*
X556265D01*
X554572D02*
X552879Y103716D01*
X548647Y108795D02*
X550340D01*
X551187Y107948D01*
Y104563D01*
X550340Y103716D01*
X548647D01*
X547801Y104563D01*
Y107948D01*
X548647Y108795D01*
X546108D02*
X542723D01*
X544416D01*
Y103716D01*
X541030D02*
Y107102D01*
X539337Y108795D01*
X537644Y107102D01*
Y103716D01*
Y106256D01*
X541030D01*
X535952Y108795D02*
X532566D01*
X534259D01*
Y103716D01*
X527488Y108795D02*
X530873D01*
Y103716D01*
X527488D01*
X530873Y106256D02*
X529180D01*
X410634Y170602D02*
X411481Y171448D01*
X413174D01*
X414020Y170602D01*
Y167216D01*
X413174Y166370D01*
X411481D01*
X410634Y167216D01*
X406403Y171448D02*
X408095D01*
X408942Y170602D01*
Y167216D01*
X408095Y166370D01*
X406403D01*
X405556Y167216D01*
Y170602D01*
X406403Y171448D01*
X403863D02*
Y166370D01*
X401324D01*
X400478Y167216D01*
Y170602D01*
X401324Y171448D01*
X403863D01*
X395399D02*
X398785D01*
Y166370D01*
X395399D01*
X398785Y168909D02*
X397092D01*
X390321Y170602D02*
X391167Y171448D01*
X392860D01*
X393707Y170602D01*
Y167216D01*
X392860Y166370D01*
X391167D01*
X390321Y167216D01*
X360680Y104140D02*
Y109218D01*
X358141D01*
X357294Y108372D01*
Y106679D01*
X358141Y105833D01*
X360680D01*
X355602Y109218D02*
X353909D01*
X354755D01*
Y104140D01*
X355602D01*
X353909D01*
X351370D02*
Y109218D01*
X348830D01*
X347984Y108372D01*
Y106679D01*
X348830Y105833D01*
X351370D01*
X349677D02*
X347984Y104140D01*
M02*
